<svg xmlns="http://www.w3.org/2000/svg" xmlns:xlink="http://www.w3.org/1999/xlink" viewBox="0 0 371.83 265.01"><defs><style>.cls-1{isolation:isolate;}.cls-17,.cls-2,.cls-24,.cls-28{fill:none;stroke-linecap:round;stroke-linejoin:round;}.cls-2{stroke:#e9e9e9;}.cls-22,.cls-3{fill:#6f6dff;}.cls-3,.cls-4{opacity:0.67;}.cls-13,.cls-4{fill:#60d5de;}.cls-17,.cls-28,.cls-5{opacity:0.7;}.cls-6{fill:url(#linear-gradient);}.cls-7{fill:url(#linear-gradient-2);}.cls-8{fill:url(#linear-gradient-3);}.cls-9{mix-blend-mode:multiply;fill:url(#linear-gradient-4);}.cls-10{fill:#a0ecef;}.cls-11{fill:#2b2a40;opacity:0.2;}.cls-12{fill:#80dde5;}.cls-14{fill:#817ebf;}.cls-15,.cls-23,.cls-27{fill:#aca8ff;}.cls-16{fill:#9a98cc;}.cls-17,.cls-28{stroke:#dedede;}.cls-17{stroke-width:0.75px;stroke-dasharray:2 2;}.cls-18{fill:url(#linear-gradient-5);}.cls-19{fill:url(#linear-gradient-6);}.cls-20{fill:url(#linear-gradient-7);}.cls-21,.cls-26{fill:#5bcacc;}.cls-23{opacity:0.5;}.cls-24{stroke:#aca8ff;stroke-width:1.5px;stroke-dasharray:3.43;opacity:0.79;}.cls-25{fill:url(#linear-gradient-8);}.cls-26,.cls-27,.cls-29{opacity:0.69;}.cls-28{stroke-width:1.14px;stroke-dasharray:3.43;}.cls-29{fill:url(#linear-gradient-9);}</style><linearGradient id="linear-gradient" x1="174.36" y1="178.26" x2="329.13" y2="178.26" gradientUnits="userSpaceOnUse"><stop offset="0" stop-color="#6f6dff"/><stop offset="1" stop-color="#60d5de"/></linearGradient><linearGradient id="linear-gradient-2" x1="174.39" y1="158.42" x2="329.13" y2="158.42" xlink:href="#linear-gradient"/><linearGradient id="linear-gradient-3" x1="177.48" y1="158.3" x2="326.47" y2="158.3" xlink:href="#linear-gradient"/><linearGradient id="linear-gradient-4" x1="236.23" y1="136.29" x2="270.47" y2="195.59" gradientUnits="userSpaceOnUse"><stop offset="0" stop-color="#fff" stop-opacity="0"/><stop offset="0.38" stop-color="#fefeff" stop-opacity="0.01"/><stop offset="0.52" stop-color="#fbfcfe" stop-opacity="0.04"/><stop offset="0.61" stop-color="#f6f9fd" stop-opacity="0.09"/><stop offset="0.69" stop-color="#eff4fb" stop-opacity="0.16"/><stop offset="0.76" stop-color="#e6edf9" stop-opacity="0.26"/><stop offset="0.82" stop-color="#dbe4f6" stop-opacity="0.37"/><stop offset="0.87" stop-color="#cddbf3" stop-opacity="0.51"/><stop offset="0.92" stop-color="#bdcfef" stop-opacity="0.68"/><stop offset="0.97" stop-color="#acc2eb" stop-opacity="0.85"/><stop offset="1" stop-color="#9eb8e8"/></linearGradient><linearGradient id="linear-gradient-5" x1="249.31" y1="116.42" x2="281.27" y2="116.42" gradientUnits="userSpaceOnUse"><stop offset="0" stop-color="#6f6dff"/><stop offset="1" stop-color="#aca8ff"/></linearGradient><linearGradient id="linear-gradient-6" x1="220.75" y1="161.42" x2="240.59" y2="161.42" gradientUnits="userSpaceOnUse"><stop offset="0" stop-color="#60d5de"/><stop offset="1" stop-color="#a0ecef"/></linearGradient><linearGradient id="linear-gradient-7" x1="232.28" y1="172.51" x2="252.12" y2="172.51" xlink:href="#linear-gradient"/><linearGradient id="linear-gradient-8" x1="1585.17" y1="108.35" x2="1730.05" y2="108.35" gradientTransform="matrix(-1, 0, 0, 1, 1791.87, 0)" gradientUnits="userSpaceOnUse"><stop offset="0" stop-color="#aca8ff"/><stop offset="1" stop-color="#a0ecef"/></linearGradient><linearGradient id="linear-gradient-9" x1="132.43" y1="111.21" x2="196.7" y2="111.21" xlink:href="#linear-gradient-5"/></defs><title>platform-development_1</title><g class="cls-1"><g id="Layer_2" data-name="Layer 2"><g id="Layer_1-2" data-name="Layer 1"><polyline class="cls-2" points="263.22 182.28 323.22 216.92 364.33 193.19 302.31 158.66 263.22 182.28 203.22 147.64 143.22 182.28 83.22 146.94 3.22 193.83 63.22 228.47 143.22 182.28"/><polyline class="cls-2" points="40.32 240.02 63.22 228.47 103.22 251.56 143.22 228.47 62.96 182.43 103.36 159.26"/><polyline class="cls-2" points="322.54 169.92 343.22 159.19 363.22 169.92"/><polyline class="cls-2" points="302.68 205.69 223.22 251.56 203.22 263.11 183.22 251.56 143.22 228.47"/><line class="cls-2" x1="245.84" y1="172.31" x2="368.6" y2="100.92"/><ellipse class="cls-3" cx="203.27" cy="263.11" rx="3.22" ry="1.9"/><ellipse class="cls-3" cx="363.22" cy="194.23" rx="3.22" ry="1.9"/><ellipse class="cls-3" cx="62.85" cy="228.47" rx="3.22" ry="1.9"/><ellipse class="cls-3" cx="3.22" cy="193.9" rx="3.22" ry="1.9"/><ellipse class="cls-4" cx="102.67" cy="205.41" rx="3.22" ry="1.9"/><ellipse class="cls-4" cx="39.13" cy="240.08" rx="3.22" ry="1.9"/><ellipse class="cls-4" cx="302.02" cy="205.41" rx="3.22" ry="1.9"/><ellipse class="cls-4" cx="368.6" cy="100.92" rx="3.22" ry="1.9"/><g id="_Group_" data-name="&lt;Group&gt;"><g id="_Group_2" data-name="&lt;Group&gt;" class="cls-5"><g id="_Group_3" data-name="&lt;Group&gt;" class="cls-1"><path id="_Path_" data-name="&lt;Path&gt;" class="cls-6" d="M325.8,149.51l-89.19,51.83c-4.46,2.59-11.7,2.59-16.18,0l-42.67-24.63c-2.25-1.3-3.38-3-3.37-4.72l0,8.37c0,1.71,1.12,3.42,3.38,4.72l42.66,24.63c4.48,2.59,11.73,2.59,16.18,0l89.2-51.83c2.21-1.29,3.32-3,3.32-4.65l0-8.37C329.12,146.54,328,148.22,325.8,149.51Z"/><g id="_Group_4" data-name="&lt;Group&gt;"><path id="_Path_2" data-name="&lt;Path&gt;" class="cls-7" d="M325.75,140.14c4.48,2.58,4.51,6.78.05,9.37l-89.19,51.83c-4.46,2.59-11.7,2.59-16.18,0l-42.67-24.63c-4.48-2.59-4.5-6.78,0-9.37l89.19-51.83c4.46-2.59,11.7-2.59,16.19,0Z"/></g></g></g><g id="_Group_5" data-name="&lt;Group&gt;" class="cls-5"><path id="_Path_3" data-name="&lt;Path&gt;" class="cls-8" d="M323.25,140.46c4.28,2.47,4.3,6.47.05,8.94l-86.44,50.24c-4.25,2.47-11.17,2.47-15.45,0L180.7,176.13c-4.27-2.47-4.29-6.47,0-8.94L267.1,117a17,17,0,0,1,15.44,0Z"/></g><path id="_Path_4" data-name="&lt;Path&gt;" class="cls-9" d="M325.8,149.51l-89.19,51.83c-4.46,2.59-11.7,2.59-16.18,0l-42.67-24.63c-2.25-1.3-3.38-3-3.37-4.72l0,8.37c0,1.71,1.12,3.42,3.38,4.72l42.66,24.63c4.48,2.59,11.73,2.59,16.18,0l89.2-51.83c2.21-1.29,3.32-3,3.32-4.65l0-8.37C329.12,146.54,328,148.22,325.8,149.51Z"/><g id="_Group_6" data-name="&lt;Group&gt;"><polygon id="_Path_5" data-name="&lt;Path&gt;" class="cls-10" points="320.4 149.7 241.59 195.41 187.85 164.38 266.66 118.67 320.4 149.7"/><g id="_Group_7" data-name="&lt;Group&gt;"><polygon id="_Path_6" data-name="&lt;Path&gt;" class="cls-11" points="320.4 149.7 315.74 152.4 261.98 121.39 266.66 118.67 320.4 149.7"/></g></g><g id="_Group_8" data-name="&lt;Group&gt;"><g id="_Group_9" data-name="&lt;Group&gt;"><path id="_Path_7" data-name="&lt;Path&gt;" class="cls-12" d="M318.3,158.48a3.5,3.5,0,0,1-1.6,2.76l-13.9,8c-.65.37-1.21.26-1.47-.24a1.48,1.48,0,0,1-.14-.67,3.52,3.52,0,0,1,1.6-2.77l13.9-8a1.42,1.42,0,0,1,.63-.21C317.89,157.3,318.3,157.72,318.3,158.48Z"/></g><g id="_Group_10" data-name="&lt;Group&gt;"><path id="_Path_8" data-name="&lt;Path&gt;" class="cls-13" d="M317.47,158a3.53,3.53,0,0,1-1.6,2.77l-13.9,8a1.46,1.46,0,0,1-.64.21,1.48,1.48,0,0,1-.14-.67,3.52,3.52,0,0,1,1.6-2.77l13.9-8a1.42,1.42,0,0,1,.63-.21A1.52,1.52,0,0,1,317.47,158Z"/></g></g><g id="_Group_11" data-name="&lt;Group&gt;"><g id="_Group_12" data-name="&lt;Group&gt;"><path id="_Path_9" data-name="&lt;Path&gt;" class="cls-14" d="M303.81,134.58a.77.77,0,0,1-.28.25,1.91,1.91,0,0,1-1.74,0l-9.52-5.49a.79.79,0,0,1-.28-.26c-.16-.25-.07-.54.28-.75a2,2,0,0,1,1.73,0l9.52,5.5C303.87,134,304,134.33,303.81,134.58Z"/></g><g id="_Group_13" data-name="&lt;Group&gt;"><path id="_Path_10" data-name="&lt;Path&gt;" class="cls-15" d="M303.81,134.58a.77.77,0,0,1-.28.25,1.91,1.91,0,0,1-1.74,0l-9.52-5.49a.79.79,0,0,1-.28-.26.77.77,0,0,1,.28-.25,1.89,1.89,0,0,1,1.73,0l9.52,5.49A.94.94,0,0,1,303.81,134.58Z"/></g></g><g id="_Group_14" data-name="&lt;Group&gt;"><g id="_Group_15" data-name="&lt;Group&gt;"><path id="_Path_11" data-name="&lt;Path&gt;" class="cls-15" d="M213.3,182.62c1,.58,1,1.52,0,2.1l-3.8,2.21a4,4,0,0,1-3.63,0l-3.83-2.21a1.11,1.11,0,0,1,0-2.1l3.8-2.21a4,4,0,0,1,3.63,0Z"/><g id="_Group_16" data-name="&lt;Group&gt;"><path id="_Path_12" data-name="&lt;Path&gt;" class="cls-15" d="M212.21,182.82a.9.9,0,0,1,0,1.7l-3.07,1.78a3.23,3.23,0,0,1-2.92,0l-3.09-1.78a.9.9,0,0,1,0-1.7l3.07-1.78a3.23,3.23,0,0,1,2.92,0Z"/></g></g><g id="_Group_17" data-name="&lt;Group&gt;"><path id="_Path_13" data-name="&lt;Path&gt;" class="cls-15" d="M227.51,194a.61.61,0,0,1,0,1.16,2.22,2.22,0,0,1-2,0l-5.71-3.29c-.56-.33-.56-.85,0-1.17a2.22,2.22,0,0,1,2,0Z"/></g><g id="_Group_18" data-name="&lt;Group&gt;"><path id="_Path_14" data-name="&lt;Path&gt;" class="cls-15" d="M195.46,175.46a.62.62,0,0,1,0,1.17,2.22,2.22,0,0,1-2,0l-5.71-3.3a.61.61,0,0,1,0-1.16,2.22,2.22,0,0,1,2,0Z"/></g></g><g id="_Group_19" data-name="&lt;Group&gt;"><g id="_Group_20" data-name="&lt;Group&gt;"><path id="_Path_15" data-name="&lt;Path&gt;" class="cls-16" d="M194.39,190.59a1.92,1.92,0,0,0,.88,1.53l7.71,4.45c.36.21.67.14.82-.13a.84.84,0,0,0,.08-.37,2,2,0,0,0-.89-1.54l-7.71-4.46a.78.78,0,0,0-.35-.11C194.61,189.93,194.39,190.16,194.39,190.59Z"/></g><g id="_Group_21" data-name="&lt;Group&gt;"><path id="_Path_16" data-name="&lt;Path&gt;" class="cls-15" d="M194.85,190.34a2,2,0,0,0,.88,1.53l7.71,4.45a1,1,0,0,0,.36.12.84.84,0,0,0,.08-.37,2,2,0,0,0-.89-1.54l-7.71-4.46a.78.78,0,0,0-.35-.11A.82.82,0,0,0,194.85,190.34Z"/></g></g><g id="_Group_22" data-name="&lt;Group&gt;"><g id="_Group_23" data-name="&lt;Group&gt;"><path id="_Path_17" data-name="&lt;Path&gt;" class="cls-16" d="M207.11,197.85a.89.89,0,0,1-.13.49c-.17.26-.5.31-.88.09a2.18,2.18,0,0,1-1-1.74c0-.43.2-.68.5-.71a.85.85,0,0,1,.5.14A2.21,2.21,0,0,1,207.11,197.85Z"/></g><g id="_Group_24" data-name="&lt;Group&gt;"><path id="_Path_18" data-name="&lt;Path&gt;" class="cls-15" d="M207.11,197.85a.89.89,0,0,1-.13.49.87.87,0,0,1-.5-.14,2.23,2.23,0,0,1-1-1.74.35.35,0,1,1,.62-.34A2.21,2.21,0,0,1,207.11,197.85Z"/></g></g><polygon id="_Path_19" data-name="&lt;Path&gt;" class="cls-11" points="228.65 172.71 218.79 178.44 204.87 170.37 214.8 164.71 228.65 172.71"/><polygon id="_Path_20" data-name="&lt;Path&gt;" class="cls-11" points="281.39 135.47 268.82 142.76 249.31 131.46 261.94 124.23 281.39 135.47"/><polygon id="_Path_21" data-name="&lt;Path&gt;" class="cls-11" points="213.24 163.82 203.38 169.55 193.39 163.74 203.31 158.08 213.24 163.82"/><polygon id="_Path_22" data-name="&lt;Path&gt;" class="cls-11" points="252.18 186.29 242.32 192.03 232.33 186.22 242.25 180.56 252.18 186.29"/><polygon id="_Path_23" data-name="&lt;Path&gt;" class="cls-11" points="310.67 152.62 298.22 159.86 285.61 152.53 298.14 145.38 310.67 152.62"/><polygon id="_Path_24" data-name="&lt;Path&gt;" class="cls-11" points="296.15 144.24 283.7 151.47 271.09 144.15 283.62 137 296.15 144.24"/><polygon id="_Path_25" data-name="&lt;Path&gt;" class="cls-11" points="268.73 147.35 262.13 151.22 238.66 137.62 245.36 133.85 268.73 147.35"/><polygon id="_Path_26" data-name="&lt;Path&gt;" class="cls-11" points="284.44 167.83 256.84 183.83 207.78 155.44 235.47 139.56 284.44 167.83"/><polygon id="_Path_27" data-name="&lt;Path&gt;" class="cls-11" points="294.32 162.13 287.72 166 280.91 162.01 287.62 158.25 294.32 162.13"/><polygon id="_Path_28" data-name="&lt;Path&gt;" class="cls-11" points="285.67 157.13 279.06 161 272.25 157.01 278.96 153.25 285.67 157.13"/><polygon id="_Path_29" data-name="&lt;Path&gt;" class="cls-11" points="277.31 152.3 270.7 156.17 263.89 152.19 270.6 148.42 277.31 152.3"/><polygon id="_Path_30" data-name="&lt;Path&gt;" class="cls-11" points="240.59 179.46 230.8 185.16 220.75 179.31 230.62 173.69 240.59 179.46"/></g><line class="cls-17" x1="252.12" y1="172.54" x2="252.12" y2="186.32"/><line class="cls-17" x1="256.85" y1="163.19" x2="256.85" y2="183.93"/><line class="cls-17" x1="284.38" y1="147.21" x2="284.38" y2="167.96"/><line class="cls-17" x1="294.32" y1="155.28" x2="294.32" y2="162.12"/><line class="cls-17" x1="280.99" y1="155.12" x2="280.99" y2="161.96"/><line class="cls-17" x1="296.15" y1="133.37" x2="296.15" y2="144.33"/><line class="cls-17" x1="310.52" y1="117.52" x2="310.52" y2="152.93"/><line class="cls-17" x1="281.22" y1="118.53" x2="281.22" y2="134.57"/><line class="cls-17" x1="249.31" y1="114.47" x2="249.31" y2="130.51"/><line class="cls-17" x1="271.09" y1="133.37" x2="271.09" y2="144.33"/><line class="cls-17" x1="207.78" y1="134.82" x2="207.78" y2="155.56"/><line class="cls-17" x1="232.33" y1="172.54" x2="232.33" y2="186.32"/><line class="cls-17" x1="220.75" y1="161.3" x2="220.75" y2="179.29"/><line class="cls-17" x1="213.04" y1="153.73" x2="213.04" y2="163.58"/><line class="cls-17" x1="193.4" y1="153.81" x2="193.4" y2="163.65"/><line class="cls-17" x1="240.59" y1="161.44" x2="240.59" y2="179.43"/><g id="_Group_25" data-name="&lt;Group&gt;"><g id="_Group_26" data-name="&lt;Group&gt;"><g id="_Group_27" data-name="&lt;Group&gt;"><polygon id="_Path_31" data-name="&lt;Path&gt;" class="cls-10" points="310.67 117.25 298.22 124.48 285.61 117.15 298.14 110 310.67 117.25"/></g></g></g><g id="_Group_28" data-name="&lt;Group&gt;"><g id="_Group_29" data-name="&lt;Group&gt;"><g id="_Group_30" data-name="&lt;Group&gt;"><polygon id="_Path_32" data-name="&lt;Path&gt;" class="cls-18" points="281.27 118.43 268.82 125.67 249.31 114.32 261.84 107.17 281.27 118.43"/></g></g></g><g id="_Group_31" data-name="&lt;Group&gt;"><g id="_Group_32" data-name="&lt;Group&gt;"><g id="_Group_33" data-name="&lt;Group&gt;"><polygon id="_Path_33" data-name="&lt;Path&gt;" class="cls-19" points="240.59 161.45 230.8 167.15 220.75 161.31 230.62 155.69 240.59 161.45"/></g></g></g><g id="_Group_34" data-name="&lt;Group&gt;"><g id="_Group_35" data-name="&lt;Group&gt;" class="cls-5"><g id="_Group_36" data-name="&lt;Group&gt;"><polygon id="_Path_34" data-name="&lt;Path&gt;" class="cls-20" points="252.13 172.55 242.34 178.25 232.28 172.4 242.15 166.78 252.13 172.55"/></g></g></g><g id="_Group_37" data-name="&lt;Group&gt;"><g id="_Group_38" data-name="&lt;Group&gt;"><g id="_Group_39" data-name="&lt;Group&gt;"><polygon id="_Path_35" data-name="&lt;Path&gt;" class="cls-21" points="213.24 153.84 203.45 159.54 193.4 153.69 203.27 148.08 213.24 153.84"/></g></g></g><g id="_Group_40" data-name="&lt;Group&gt;"><g id="_Group_41" data-name="&lt;Group&gt;" class="cls-5"><g id="_Group_42" data-name="&lt;Group&gt;"><polygon id="_Path_36" data-name="&lt;Path&gt;" class="cls-15" points="284.44 147.26 256.82 163.32 207.78 134.96 235.47 118.99 284.44 147.26"/></g></g></g><g id="_Group_43" data-name="&lt;Group&gt;"><g id="_Group_44" data-name="&lt;Group&gt;"><g id="_Group_45" data-name="&lt;Group&gt;"><polygon id="_Path_37" data-name="&lt;Path&gt;" class="cls-22" points="296.15 133.37 283.7 140.61 271.09 133.28 283.62 126.13 296.15 133.37"/></g></g></g><g id="_Group_46" data-name="&lt;Group&gt;"><g id="_Group_47" data-name="&lt;Group&gt;" class="cls-5"><g id="_Group_48" data-name="&lt;Group&gt;"><g id="_Group_49" data-name="&lt;Group&gt;"><polygon id="_Path_38" data-name="&lt;Path&gt;" class="cls-22" points="294.32 155.18 287.7 159.11 280.91 155.05 287.62 151.21 294.32 155.18"/></g></g></g></g><path class="cls-23" d="M48.8,79.38,185.33.55c2.23-1.28,4-.24,4.06,2.31l.26,93.38a8.88,8.88,0,0,1-4,7L131.11,134.7l4.16,25.12-14.51,8.38-14.51,8.38,4-29.84L49.09,182.05c-2.22,1.28-4.05.24-4.06-2.31l-.26-93.38A8.88,8.88,0,0,1,48.8,79.38Z"/><path class="cls-24" d="M57.17,87.75,193.71,8.93c2.22-1.29,4-.25,4,2.31l.27,93.38a9,9,0,0,1-4,7l-54.52,31.47,4.17,25.13-14.52,8.38L114.62,185l4-29.85L57.47,190.42c-2.23,1.29-4,.25-4.06-2.31l-.27-93.38A9,9,0,0,1,57.17,87.75Z"/><path class="cls-25" d="M65.85,96.42,202.38,17.6c2.22-1.29,4.05-.25,4.06,2.31l.26,93.38a8.89,8.89,0,0,1-4,7l-54.52,31.48,4.17,25.12-14.51,8.38-14.52,8.38,4-29.85L66.14,199.1c-2.23,1.28-4,.24-4.06-2.32l-.26-93.38A8.91,8.91,0,0,1,65.85,96.42Z"/><polygon class="cls-10" points="73.93 105.63 73.93 174.6 198.03 104.24 198.03 34.83 73.93 105.63"/><polygon class="cls-11" points="79.13 113.81 79.13 137.27 99.44 125.54 99.44 102.08 79.13 113.81"/><polygon class="cls-11" points="167.76 62.03 167.76 85.49 188.07 73.76 188.07 50.3 167.76 62.03"/><polygon class="cls-11" points="102.25 100.95 102.25 124.41 166.52 86.11 166.52 62.66 102.25 100.95"/><polygon class="cls-11" points="79.13 141.66 79.13 165.12 122.57 140.12 122.57 116.66 79.13 141.66"/><polygon class="cls-11" points="124 115.85 124 139.31 188.27 101.02 188.27 77.56 124 115.85"/><polygon class="cls-10" points="109.89 131.41 109.89 154.86 130.21 143.13 130.21 119.67 109.89 131.41"/><polygon class="cls-26" points="109.89 159.37 109.89 182.83 153.33 157.83 153.33 134.37 109.89 159.37"/><polygon class="cls-27" points="154.86 133.97 154.86 157.43 219.13 119.13 219.13 95.67 154.86 133.97"/><line class="cls-28" x1="109.89" y1="182.83" x2="79.45" y2="165.43"/><line class="cls-28" x1="151.2" y1="135.25" x2="120.76" y2="117.85"/><line class="cls-28" x1="129.56" y1="119.48" x2="99.13" y2="102.08"/><line class="cls-28" x1="109.89" y1="154.66" x2="79.45" y2="137.26"/><line class="cls-28" x1="132.43" y1="118.39" x2="101.99" y2="100.99"/><line class="cls-28" x1="196.95" y1="103.26" x2="166.52" y2="85.86"/><line class="cls-28" x1="198.19" y1="79.5" x2="167.76" y2="62.1"/><line class="cls-28" x1="218.01" y1="68.01" x2="187.57" y2="50.61"/><line class="cls-28" x1="218.51" y1="95.54" x2="188.07" y2="78.14"/><polygon class="cls-29" points="132.43 118.63 132.43 142.09 196.69 103.8 196.69 80.34 132.43 118.63"/><polygon class="cls-10" points="198.97 79.31 198.97 102.77 219.28 91.04 219.28 67.58 198.97 79.31"/></g></g></g></svg>