<?xml version="1.0" encoding="UTF-8"?>
<svg width="27px" height="34px" viewBox="0 0 27 34" version="1.1" xmlns="http://www.w3.org/2000/svg" xmlns:xlink="http://www.w3.org/1999/xlink">
    <!-- Generator: Sketch 49.1 (51147) - http://www.bohemiancoding.com/sketch -->
    <title>Shape</title>
    <desc>Created with Sketch.</desc>
    <defs></defs>
    <g id="Page-1" stroke="none" stroke-width="1" fill="none" fill-rule="evenodd">
        <g id="1-1-1-Сryptoguys-Landing-pre-ico" transform="translate(-326.000000, -13698.000000)" fill="#25CBD3" fill-rule="nonzero">
            <g id="Documents" transform="translate(160.000000, 13415.000000)">
                <g id="1" transform="translate(0.000000, 254.000000)">
                    <path d="M187.694944,51.1822898 C187.282908,51.304476 186.678236,51.3182884 186.029543,51.2237268 C185.333659,51.1220821 184.623689,50.9081676 183.926045,50.5929626 C185.170254,50.4109228 186.135545,50.4668806 186.961027,50.76119 C187.156832,50.8309601 187.478009,51.0172498 187.694944,51.1822898 Z M180.753013,50.0344476 C180.702301,50.0482599 180.652645,50.0613639 180.60299,50.0751763 C180.268078,50.1669045 179.942323,50.2561536 179.628541,50.3358403 L179.205236,50.44386 C178.353694,50.6606077 177.483135,50.8819596 176.623494,51.1454568 C176.950305,50.3528401 177.253874,49.5517234 177.551103,48.7683149 C177.771208,48.1885501 177.995891,47.5960355 178.228322,47.0113124 C178.346298,47.2071645 178.469205,47.4030166 178.597394,47.5995771 C179.180584,48.4931303 179.913797,49.3193925 180.753013,50.0344476 Z M178.587181,41.0978531 C178.642471,42.0756971 178.432579,43.016354 178.124785,43.9187613 C177.745852,42.8027937 177.569064,41.5706607 178.043082,40.5758169 C178.16458,40.3208196 178.264243,40.1844668 178.32869,40.1132801 C178.428353,40.2684035 178.559712,40.6147748 178.587181,41.0978531 Z M174.142119,53.4850574 C173.929058,53.8682618 173.71177,54.2270289 173.488848,54.5656087 C172.951088,55.3805377 172.071725,56.2531953 171.619894,56.2531953 C171.57552,56.2531953 171.521639,56.246112 171.443105,56.1625296 C171.392393,56.1090509 171.384293,56.0708013 171.386758,56.0187394 C171.401902,55.7191175 171.796682,55.1853939 172.368602,54.6906282 C172.887698,54.2415496 173.474409,53.8427621 174.142119,53.4850574 Z M189.133902,51.2244352 C189.064877,50.2264039 187.394193,49.5860772 187.377641,49.5800565 C186.731766,49.3498505 186.030247,49.237935 185.232939,49.237935 C184.379285,49.237935 183.45907,49.3622462 182.277195,49.63991 C181.225622,48.890147 180.317029,47.9516151 179.638402,46.9125009 C179.338707,46.4535057 179.069299,45.9952188 178.834403,45.5475568 C179.407732,44.1688003 179.92401,42.6862741 179.830333,41.0259581 C179.754617,39.6946594 179.157693,38.8003979 178.345946,38.8003979 C177.789169,38.8003979 177.309516,39.2151228 176.919667,40.0343017 C176.224135,41.4941615 176.40691,43.3620171 177.462709,45.5907647 C177.082368,46.488922 176.729144,47.4200165 176.387189,48.3217154 C175.96177,49.4426412 175.523321,50.5989833 175.02923,51.6990136 C173.64345,52.2504453 172.505243,52.919105 171.556503,53.7400548 C170.934927,54.2769659 170.185866,55.0975615 170.142902,55.9542817 C170.122124,56.3576734 170.259469,56.7277737 170.539091,57.0242081 C170.835968,57.339059 171.209266,57.5048072 171.619541,57.5051614 C172.974683,57.5051614 174.27876,55.6327017 174.525982,55.257289 C175.023947,54.5025677 175.489865,53.6607223 175.946627,52.6896074 C177.096807,52.2716951 178.322703,51.9596775 179.510565,51.6579306 L179.935984,51.5492026 C180.255752,51.467391 180.588198,51.3770794 180.929097,51.2832262 C181.290069,51.1851231 181.661254,51.0834783 182.038425,50.9867918 C183.258335,51.7670128 184.57016,52.275945 185.849585,52.4625889 C186.927219,52.6201915 187.884411,52.5288174 188.532047,52.1891751 C189.115237,51.8838866 189.147637,51.4128499 189.133902,51.2244352 Z M191.758256,59.8065124 C191.758256,61.6343476 190.156245,61.7469714 189.832955,61.7508672 L169.165284,61.7508672 C167.354437,61.7508672 167.245265,60.1288007 167.241744,59.8065124 L167.241744,32.1934876 C167.241744,30.3638816 168.846572,30.2530286 169.165284,30.2491328 L183.126976,30.2491328 L183.134372,30.2565702 L183.134372,35.7358257 C183.134372,36.8355017 183.795391,38.9172717 186.298951,38.9172717 L191.71177,38.9172717 L191.758256,38.9640212 L191.758256,59.8065124 Z M190.474957,37.6681389 L186.299303,37.6681389 C184.488809,37.6681389 184.379285,36.0549265 184.37682,35.7358257 L184.37682,31.5103072 L190.474957,37.6681389 Z M193,59.8065124 L193,38.4483599 L184.37682,29.7402006 L184.37682,29.699826 L184.335616,29.699826 L183.643254,29 L169.165284,29 C168.070394,29 166,29.6675972 166,32.1934876 L166,59.8068666 C166,60.9111468 166.661723,63 169.165284,63 L189.835068,63 C190.929606,62.9996458 193,62.3324028 193,59.8065124 Z" id="Shape"></path>
                </g>
            </g>
        </g>
    </g>
</svg>