<?xml version="1.0" encoding="UTF-8"?>
<svg width="57px" height="60px" viewBox="0 0 57 60" version="1.1" xmlns="http://www.w3.org/2000/svg" xmlns:xlink="http://www.w3.org/1999/xlink">
    <!-- Generator: Sketch 49.1 (51147) - http://www.bohemiancoding.com/sketch -->
    <title>Group 7</title>
    <desc>Created with Sketch.</desc>
    <defs></defs>
    <g id="Page-1" stroke="none" stroke-width="1" fill="none" fill-rule="evenodd">
        <g id="1-1-1-Сryptoguys-Landing-after-ICO-" transform="translate(-1416.000000, -9520.000000)" fill-rule="nonzero">
            <g id="Name-bloc" transform="translate(166.000000, 9211.000000)">
                <g id="Group-7" transform="translate(1250.000000, 309.000000)">
                    <path d="M43.0588235,46.5866083 L43.0588235,42.2147576 C48.840004,38.5024389 52.6782353,32.0159306 52.6782353,24.6505147 C52.6782353,13.1500368 43.3205515,3.79235294 31.8200735,3.79235294 C21.4099632,3.79235294 12.7841912,11.4643015 11.233125,21.4459191 L19.5934191,17.2666544 L21.2905147,20.6589706 L9.91334559,26.3476103 C9.64213235,26.4821691 9.35205882,26.5466912 9.06573529,26.5466912 C8.50444853,26.5466912 7.95452206,26.2964338 7.58481618,25.835625 L0,16.3546324 L2.96183824,13.9844118 L7.64735294,19.8418015 C9.890625,8.54613971 19.8721324,0 31.8200735,0 C45.4119485,0 56.4705882,11.0586397 56.4705882,24.6505147 C56.4705882,34.1967665 51.0154126,42.4933851 43.0588235,46.5866083 Z" id="Combined-Shape" fill="#A843FD"></path>
                    <path d="M43.9567328,28.9842947 C33.6484817,28.9842947 31.9044875,25.0666855 31.8889162,25.029937 C31.8132838,24.8383995 31.6264273,24.7103367 31.4151014,24.7058824 C31.4151014,24.7058824 31.4106525,24.7058824 31.4062035,24.7058824 C31.2015511,24.7058824 31.0124701,24.8339452 30.9301643,25.0210283 C30.9179296,25.0622311 29.1361193,28.9842947 18.8667966,28.9842947 C18.5798384,28.9842947 18.3529412,29.217035 18.3529412,29.4976596 L18.3529412,47.0522905 C18.3529412,54.238286 30.6810223,59.7282841 31.2026634,59.9587972 C31.2716223,59.9888641 31.3372445,60 31.4117647,60 C31.4796114,60 31.5530193,59.9888641 31.6186416,59.9587972 C32.1447316,59.7282841 44.4705882,54.238286 44.4705882,47.0522905 L44.4705882,29.4976596 C44.4683638,29.217035 44.2403543,28.9842947 43.9567328,28.9842947 Z M41.6343733,46.0311285 C41.6343733,51.6536439 31.9823444,55.9554416 31.5719274,56.1336159 C31.5218766,56.1592285 31.4629278,56.1681372 31.4106525,56.1681372 C31.3539282,56.1681372 31.3016528,56.1592285 31.2482653,56.1336159 C30.8422972,55.9554416 21.1869317,51.6536439 21.1869317,46.0311285 L21.1869317,32.290543 C21.1869317,32.0689386 21.3660025,31.8863099 21.589563,31.8863099 C29.6299544,31.8863099 31.0235925,28.8172562 31.0369394,28.7871893 C31.1003372,28.6390818 31.247153,28.5388587 31.408428,28.5388587 C31.4106525,28.5388587 31.4151014,28.5388587 31.4151014,28.5388587 C31.5797131,28.5410859 31.7254167,28.641309 31.7843655,28.7938708 C31.7977124,28.8217105 33.1635445,31.8863099 41.231742,31.8863099 C41.4553024,31.8863099 41.633261,32.0689386 41.633261,32.290543 L41.6343733,46.0311285 Z" id="Shape" fill="#25CBD3"></path>
                </g>
            </g>
        </g>
    </g>
</svg>