<?xml version="1.0" encoding="UTF-8"?>
<svg width="44px" height="60px" viewBox="0 0 44 60" version="1.1" xmlns="http://www.w3.org/2000/svg" xmlns:xlink="http://www.w3.org/1999/xlink">
    <!-- Generator: Sketch 49 (51002) - http://www.bohemiancoding.com/sketch -->
    <title>upload (1)</title>
    <desc>Created with Sketch.</desc>
    <defs></defs>
    <g id="Page-1" stroke="none" stroke-width="1" fill="none" fill-rule="evenodd">
        <g id="1-1-1-Сryptoguys-Landing-after-ICO-" transform="translate(-130.000000, -9233.000000)">
            <g id="upload-(1)" transform="translate(130.000000, 9233.000000)">
                <g id="Group-20">
                    <g id="Group-21">
                        <path d="M22.8150888,26.760355 C22.1671598,26.2100592 21.1553254,26.2100592 20.5073964,26.760355 L2.87130178,41.6272189 C1.92159763,42.5769231 2.12573964,44.7692308 4.06952663,44.7692308 L9.51923077,44.7692308 L9.51923077,58.1538462 C9.51923077,59.1656805 10.3535503,60 11.3653846,60 L32.045858,60 C33.0576923,60 33.8920118,59.1656805 33.8920118,58.2426036 L33.8920118,44.8579882 L39.341716,44.8579882 C40.8505917,44.8579882 41.7736686,42.9497041 40.4511834,41.6272189 L22.8150888,26.760355 Z M32.1346154,41.1656805 C31.1227811,41.1656805 30.2884615,42 30.2884615,43.0118343 L30.2884615,56.3964497 L13.2115385,56.3964497 L13.2115385,43.0118343 C13.2115385,42 12.3772189,41.1656805 11.3653846,41.1656805 L9.05769231,41.1656805 L21.7056213,30.4526627 L34.4423077,41.1656805 L32.1346154,41.1656805 Z" id="Shape" fill="#A843FD" fill-rule="nonzero"></path>
                        <path d="M41.6494083,16.5088757 L1.85059172,16.5088757 C0.838757396,16.5088757 0.00443786982,17.3431953 0.00443786982,18.3550296 C0.00443786982,19.3668639 0.838757396,20.2011834 1.85059172,20.2011834 L41.5517751,20.2011834 C42.5636095,20.2011834 43.4866864,19.3668639 43.4866864,18.3550296 C43.4866864,17.3431953 42.6612426,16.5088757 41.6494083,16.5088757 Z" id="Shape" fill="#25CBD3" fill-rule="nonzero"></path>
                        <path d="M1.33579882,11.5384615 C1.19082768,11.5384615 1.06760406,11.4877224 0.96612426,11.3862426 C0.864644463,11.2847628 0.813905325,11.1615392 0.813905325,11.016568 L0.813905325,0.752662722 C0.813905325,0.593194469 0.864644463,0.466346625 0.96612426,0.372115385 C1.06760406,0.277884144 1.19082768,0.230769231 1.33579882,0.230769231 L3.05369822,0.230769231 C3.21316648,0.230769231 3.34001432,0.277884144 3.43424556,0.372115385 C3.5284768,0.466346625 3.57559172,0.593194469 3.57559172,0.752662722 L3.57559172,1.49201183 C4.35843587,0.506208089 5.40946086,0.0133136095 6.72869822,0.0133136095 C8.33787787,0.0133136095 9.46138734,0.658425501 10.0992604,1.94866864 C10.4471911,1.36878408 10.9400856,0.901259172 11.5779586,0.546079882 C12.2158316,0.190900591 12.9044342,0.0133136095 13.643787,0.0133136095 C14.8325503,0.0133136095 15.8038424,0.41922671 16.5576923,1.23106509 C17.3115422,2.04290347 17.6884615,3.22440053 17.6884615,4.77559172 L17.6884615,11.016568 C17.6884615,11.1615392 17.6413466,11.2847628 17.5471154,11.3862426 C17.4528841,11.4877224 17.3260363,11.5384615 17.166568,11.5384615 L15.3616864,11.5384615 C15.2167153,11.5384615 15.0934916,11.4877224 14.9920118,11.3862426 C14.890532,11.2847628 14.8397929,11.1615392 14.8397929,11.016568 L14.8397929,4.94955621 C14.8397929,4.03623804 14.647709,3.37662925 14.2635355,2.97071006 C13.879362,2.56479087 13.3755948,2.36183432 12.7522189,2.36183432 C12.1868315,2.36183432 11.7048097,2.56841509 11.3061391,2.98158284 C10.9074684,3.39475059 10.7081361,4.05073515 10.7081361,4.94955621 L10.7081361,11.016568 C10.7081361,11.1615392 10.6610212,11.2847628 10.5667899,11.3862426 C10.4725587,11.4877224 10.3457109,11.5384615 10.1862426,11.5384615 L8.35961538,11.5384615 C8.21464425,11.5384615 8.09142063,11.4877224 7.98994083,11.3862426 C7.88846103,11.2847628 7.83772189,11.1615392 7.83772189,11.016568 L7.83772189,4.94955621 C7.83772189,4.05073515 7.64201379,3.39475059 7.25059172,2.98158284 C6.85916964,2.56841509 6.35902671,2.36183432 5.75014793,2.36183432 C5.18476049,2.36183432 4.70273868,2.56841509 4.30406805,2.98158284 C3.90539741,3.39475059 3.70606509,4.05073515 3.70606509,4.94955621 L3.70606509,11.016568 C3.70606509,11.1615392 3.65895018,11.2847628 3.56471893,11.3862426 C3.47048769,11.4877224 3.34363985,11.5384615 3.1841716,11.5384615 L1.33579882,11.5384615 Z M23.7337278,11.7559172 C22.994375,11.7559172 22.3166451,11.607324 21.7005178,11.3101331 C21.0843904,11.0129423 20.5987444,10.6106534 20.2435651,10.1032544 C19.8883858,9.59585545 19.7107988,9.03772494 19.7107988,8.42884615 C19.7107988,7.44304241 20.1094635,6.6457131 20.9068047,6.03683432 C21.704146,5.42795554 22.7986617,5.01479399 24.1903846,4.79733728 L27.1695266,4.36242604 L27.1695266,3.90576923 C27.1695266,3.28239333 27.0100608,2.8112442 26.6911243,2.49230769 C26.3721878,2.17337119 25.8647964,2.01390533 25.1689349,2.01390533 C24.6905302,2.01390533 24.3063624,2.1008867 24.0164201,2.27485207 C23.7264778,2.44881744 23.4909033,2.62640442 23.3096893,2.80761834 L22.9508876,3.16642012 C22.8928991,3.34038549 22.7841724,3.42736686 22.6247041,3.42736686 L20.9285503,3.42736686 C20.7980763,3.42736686 20.6857253,3.38387617 20.5914941,3.29689349 C20.4972628,3.20991081 20.4501479,3.09393564 20.4501479,2.9489645 C20.464645,2.58653665 20.642232,2.17699932 20.9829142,1.72034024 C21.3235964,1.26368115 21.8491089,0.865016496 22.5594675,0.52433432 C23.269826,0.183652143 24.1468883,0.0133136095 25.1906805,0.0133136095 C26.9013399,0.0133136095 28.148073,0.397481365 28.9309172,1.1658284 C29.7137613,1.93417544 30.1051775,2.94170974 30.1051775,4.18846154 L30.1051775,11.016568 C30.1051775,11.1615392 30.0580626,11.2847628 29.9638314,11.3862426 C29.8696001,11.4877224 29.7427523,11.5384615 29.583284,11.5384615 L27.7784024,11.5384615 C27.6334312,11.5384615 27.5102076,11.4877224 27.4087278,11.3862426 C27.307248,11.2847628 27.2565089,11.1615392 27.2565089,11.016568 L27.2565089,10.1684911 C26.9375724,10.6323988 26.4881686,11.0129423 25.908284,11.3101331 C25.3283995,11.607324 24.6035546,11.7559172 23.7337278,11.7559172 Z M24.4730769,9.6683432 C25.2704182,9.6683432 25.9227785,9.40739906 26.4301775,8.88550296 C26.9375765,8.36360686 27.1912722,7.60976824 27.1912722,6.6239645 L27.1912722,6.18905325 L25.016716,6.53698225 C23.3495479,6.7979303 22.5159763,7.35606081 22.5159763,8.21139053 C22.5159763,8.67529818 22.7080602,9.03409636 23.0922337,9.28779586 C23.4764072,9.54149535 23.9366837,9.6683432 24.4730769,9.6683432 Z M32.4102071,11.5384615 C32.2797331,11.5384615 32.1673821,11.4913466 32.0731509,11.3971154 C31.9789196,11.3028841 31.9318047,11.1905332 31.9318047,11.0600592 C31.9318047,10.9295851 31.9752954,10.8063615 32.0622781,10.6903846 L35.7807692,5.73239645 L32.3449704,1.07884615 C32.2579877,0.962869243 32.214497,0.839645623 32.214497,0.709171598 C32.214497,0.578697572 32.261612,0.466346625 32.3558432,0.372115385 C32.4500744,0.277884144 32.5624254,0.230769231 32.6928994,0.230769231 L34.6065089,0.230769231 C34.7659771,0.230769231 34.8855765,0.263387248 34.9653107,0.32862426 C35.0450448,0.393861273 35.1284019,0.484466876 35.2153846,0.600443787 L37.6508876,3.84053254 L40.064645,0.600443787 C40.0791421,0.585946673 40.1335054,0.520710639 40.2277367,0.404733728 C40.3219679,0.288756817 40.4705611,0.230769231 40.6735207,0.230769231 L42.5218935,0.230769231 C42.6523675,0.230769231 42.7610942,0.277884144 42.8480769,0.372115385 C42.9350596,0.466346625 42.9785503,0.571449124 42.9785503,0.687426036 C42.9785503,0.832397175 42.9350596,0.962869243 42.8480769,1.07884615 L39.368787,5.75414201 L43.1090237,10.6903846 C43.1960064,10.8063615 43.239497,10.9295851 43.239497,11.0600592 C43.239497,11.1905332 43.1923821,11.3028841 43.0981509,11.3971154 C43.0039196,11.4913466 42.8915687,11.5384615 42.7610947,11.5384615 L40.760503,11.5384615 C40.5285491,11.5384615 40.332841,11.4224864 40.1733728,11.1905325 L37.5639053,7.75473373 L34.9326923,11.1905325 C34.7732241,11.4224864 34.577516,11.5384615 34.3455621,11.5384615 L32.4102071,11.5384615 Z" id="max" fill="#25CBD3"></path>
                    </g>
                </g>
            </g>
        </g>
    </g>
</svg>