<?xml version="1.0" encoding="UTF-8"?>
<svg width="43px" height="60px" viewBox="0 0 43 60" version="1.1" xmlns="http://www.w3.org/2000/svg" xmlns:xlink="http://www.w3.org/1999/xlink">
    <!-- Generator: Sketch 49.1 (51147) - http://www.bohemiancoding.com/sketch -->
    <title>Group 5</title>
    <desc>Created with Sketch.</desc>
    <defs></defs>
    <g id="Page-1" stroke="none" stroke-width="1" fill="none" fill-rule="evenodd">
        <g id="1-1-1-Сryptoguys-Landing-after-ICO-" transform="translate(-603.000000, -9520.000000)" fill-rule="nonzero">
            <g id="Name-bloc" transform="translate(166.000000, 9211.000000)">
                <g id="Group-5" transform="translate(437.000000, 309.000000)">
                    <path d="M35.5750958,45.9925192 C35.4128593,44.8669853 34.9828403,43.8280297 34.3516971,42.9423105 C36.946217,40.2068797 38.696315,36.6668603 39.1808642,32.741456 C37.9720976,33.406936 36.7345123,33.6668545 35.5494073,33.4966013 L33.1954774,33.158314 L34.4941381,31.1710522 C34.501722,31.1591506 35.6235269,29.3829907 35.9807774,26.6642859 C36.3584538,23.7901545 35.780159,20.9742199 34.2602518,18.2670132 C33.5566715,19.2457671 32.7382211,20.0275397 31.8335168,20.576828 C30.2618371,21.5310727 28.4924713,21.7428806 26.8506156,21.1731175 C24.4887985,20.3535221 22.6578518,18.0060862 21.8272671,14.7329492 C21.0853631,11.809396 21.1282372,8.20926802 21.9404184,4.20892415 C16.1165173,6.31984132 12.2645218,11.0176381 10.4732134,18.2079088 C8.90658956,24.4955755 9.57154265,30.4055182 9.57841869,30.4645218 L9.93405129,33.503359 L7.29618158,31.9433439 C5.52914155,30.8976184 4.14119355,29.7706999 3.11737207,28.8031415 C3.06357721,29.3720977 3.03647754,29.9444832 3.03647754,30.5181798 C3.03647754,35.3246299 4.92522917,39.6990613 8.00116229,42.9424253 C7.37006978,43.8281109 6.94008318,44.8670138 6.77785009,45.9924865 C2.6110179,42.1330026 0,36.6243075 0,30.5182807 C0,28.6848317 0.237122109,26.8615698 0.704995884,25.0991269 L1.55620864,21.8925581 L3.42497355,24.6311325 C3.45065756,24.6678458 4.43039152,26.055994 6.39228626,27.6380976 C6.36538882,25.1434048 6.54608699,21.4550236 7.50549619,17.5618949 C9.78793553,8.30044625 15.3831073,2.41884541 23.6864258,0.553121017 L26.1479454,0 L25.4846102,2.42822547 C23.9213233,8.15066786 24.233374,11.8739469 24.7702104,13.9898063 C25.345775,16.2582681 26.4676811,17.8339166 27.8479441,18.3130058 C29.6408704,18.9356199 31.5700028,17.5387977 32.7622872,14.7546343 L33.7959171,12.3409327 L35.3733606,14.441663 C39.132833,19.4483966 39.4037286,24.1540606 38.9687183,27.2200293 C38.8430284,28.105386 38.6529262,28.9080369 38.4399713,29.611844 C38.9789312,29.197205 39.4010995,28.7422216 39.5993923,28.4850264 L42.0898317,25.2541501 L42.318561,29.3232811 C42.3414137,29.7293469 42.3529412,30.1314792 42.3529412,30.5182807 C42.3529412,36.6243247 39.7419368,42.1330336 35.5750958,45.9925192 Z M14.1302057,40 L13.7058824,40 C12.7693682,40 11.8758087,40.1839105 11.0593495,40.5175856 C11.2257044,36.7332523 12.3973933,31.9453843 16.6421296,28.7633015 C19.432081,26.6717496 22.2456941,26.3000773 22.3641035,26.2852508 L25.8757353,25.8463042 L23.7742975,28.686849 C22.4500539,30.476726 22.5606772,32.444925 23.1060075,33.6898508 C23.5003684,34.5904375 24.0732028,35.0377554 24.4659458,35.0815291 C24.9611215,35.1377086 25.4592296,34.5710722 25.7117216,34.2288512 L26.7034887,32.8848801 L27.9484556,33.9996953 C29.8327293,35.687177 31.009529,38.0159031 31.2639238,40.5055404 C30.4555045,40.1794872 29.5722424,40 28.6470588,40 L28.112329,40 C27.8970037,39.029877 27.4790126,38.1135925 26.8864114,37.3135801 C25.7937285,38.1066492 24.7513013,38.1602063 24.1285145,38.0910157 C22.5430827,37.9143075 21.1207545,36.722132 20.3236399,34.9020976 C19.7888259,33.6808741 19.5041783,32.0406746 19.8252285,30.3097004 C17.5020261,31.5499969 14.5728609,34.2432532 14.1302057,40 Z" id="Combined-Shape" fill="#A843FD"></path>
                    <g id="coins" transform="translate(9.176471, 42.352941)" fill="#25CBD3">
                        <path d="M11.6470588,0 C7.32124701,0 0,0.891988296 0,4.23529412 C0,7.57866943 7.32124701,8.47058824 11.6470588,8.47058824 C15.9728706,8.47058824 23.2941176,7.57873891 23.2941176,4.2353636 C23.2941176,0.891988296 15.9728706,0 11.6470588,0 Z M11.6470588,5.92949515 C6.38599181,5.92949515 3.3707404,4.83002247 2.68354191,4.2353636 C3.3707404,3.64070474 6.38648722,2.54123206 11.6470588,2.54123206 C16.9076304,2.54123206 19.9229526,3.64070474 20.6105757,4.2353636 C19.9233773,4.83002247 16.9080551,5.92949515 11.6470588,5.92949515 Z" id="Shape"></path>
                        <path d="M20.7059059,8.59796652 C20.7059059,8.53104237 20.7252975,8.48332606 20.7330825,8.47058824 C20.4233831,8.99149127 17.3687824,10.2411463 11.6470588,10.2411463 C5.92533528,10.2411463 2.8707345,8.99149127 2.56103516,8.47058824 C2.56882011,8.48332606 2.5882117,8.53097498 2.5882117,8.59796652 L0,8.59796652 C0,11.6300414 6.27431321,12.7058824 11.6470588,12.7058824 C17.0198044,12.7058824 23.2941176,11.6300414 23.2941176,8.59796652 L20.7059059,8.59796652 Z" id="Shape"></path>
                        <path d="M20.7059059,12.8331953 C20.7059059,12.7662027 20.7252975,12.718553 20.7330825,12.7058824 C20.4233831,13.2267937 17.3687824,14.4764012 11.6470588,14.4764012 C5.92533528,14.4764012 2.8707345,13.2267263 2.56103516,12.7058824 C2.56882011,12.7186204 2.5882117,12.7662701 2.5882117,12.8331953 L0,12.8331953 C0,15.8653184 6.27431321,16.9411765 11.6470588,16.9411765 C17.0198044,16.9411765 23.2941176,15.8653184 23.2941176,12.8331953 L20.7059059,12.8331953 Z" id="Shape"></path>
                        <rect id="Rectangle-path" x="20.4705882" y="4.23529412" width="2.82352941" height="9.17647059"></rect>
                        <rect id="Rectangle-path" x="0" y="4.23529412" width="2.82352941" height="9.17647059"></rect>
                    </g>
                </g>
            </g>
        </g>
    </g>
</svg>