<?xml version="1.0" encoding="UTF-8"?>
<svg width="54px" height="61px" viewBox="0 0 54 61" version="1.1" xmlns="http://www.w3.org/2000/svg" xmlns:xlink="http://www.w3.org/1999/xlink">
    <!-- Generator: Sketch 49 (51002) - http://www.bohemiancoding.com/sketch -->
    <title>Group 23</title>
    <desc>Created with Sketch.</desc>
    <defs></defs>
    <g id="Page-1" stroke="none" stroke-width="1" fill="none" fill-rule="evenodd">
        <g id="1-1-1-Сryptoguys-Landing-after-ICO-" transform="translate(-1009.000000, -9520.000000)">
            <g id="Name-bloc" transform="translate(166.000000, 9211.000000)">
                <g id="Group-6" transform="translate(843.000000, 309.000000)">
                    <g id="Group-22">
                        <g id="Group-23">
                            <polygon id="Shape" fill="#A843FD" fill-rule="nonzero" points="52.957872 35.7145665 51.350164 34.1137644 44.363716 37.4071072 31.2612466 29.6278326 31.5760575 29.4425729 44.363716 21.8523154 51.350164 25.1454948 52.957872 21.5448562 48.4570736 19.422211 53.3283914 16.5289573 51.4021151 13.0987119 46.5307973 15.9919655 46.9937832 10.924279 43.156097 10.5537595 42.4374396 18.4183124 29.646187 26.0123274 29.3349703 26.1975871 29.3349703 10.6427953 35.5991667 6.06782768 33.3690252 2.83754507 29.3349703 5.78258653 29.3349703 0 25.4786601 0 25.4786601 5.78258653 21.4408477 2.83754507 19.2144637 6.06782768 25.4786601 10.6427953 25.4786601 26.1975871 25.1638493 26.0123274 12.3761908 18.4183124 11.6575334 10.5537595 7.81984717 10.924279 8.28283311 15.9919655 3.4115153 13.0987119 1.48148148 16.5289573 6.35655676 19.422211 1.8557584 21.5448562 3.46346644 25.1454948 10.4499144 21.8523154 23.2375729 29.4425729 23.5523838 29.6278326 25.4786601 31.0618355 25.4786601 48.6166273 19.2144637 53.1878375 21.4408477 56.4217142 25.4786601 53.4730786 25.4786601 59.2592593 29.3349703 59.2592593 29.3349703 53.4730786 33.3690252 56.4217142 35.5991667 53.1878375 29.3349703 48.6166273 29.3349703 33.0618355 42.4374396 40.8373527 43.156097 48.7017423 46.9937832 48.3349803 46.5307973 43.2674571 51.4021151 46.1605474 53.3283914 42.7265444 48.4570736 39.8370482"></polygon>
                            <path d="M11.3747407,60.1111111 C11.0947393,60.1111111 10.8567417,60.0131121 10.6607407,59.8171111 C10.4647398,59.6211101 10.3667407,59.3831125 10.3667407,59.1031111 L10.3667407,37.4311111 L4.02474074,42.3031111 C3.8567399,42.4431118 3.646742,42.5131111 3.39474074,42.5131111 C3.05873906,42.5131111 2.79274172,42.3731125 2.59674074,42.0931111 L0.790740741,39.7411111 C0.650740041,39.5451101 0.580740741,39.3491121 0.580740741,39.1531111 C0.580740741,38.8171094 0.734739201,38.5371122 1.04274074,38.3131111 L10.4507407,31.0051111 C10.7587423,30.8091101 11.1087388,30.7111111 11.5007407,30.7111111 L15.2807407,30.7111111 C15.5607421,30.7111111 15.7987398,30.8091101 15.9947407,31.0051111 C16.1907417,31.2011121 16.2887407,31.4391097 16.2887407,31.7191111 L16.2887407,59.1031111 C16.2887407,59.3831125 16.1907417,59.6211101 15.9947407,59.8171111 C15.7987398,60.0131121 15.5607421,60.1111111 15.2807407,60.1111111 L11.3747407,60.1111111 Z" id="1" fill="#25CBD3"></path>
                        </g>
                    </g>
                </g>
            </g>
        </g>
    </g>
</svg>