<?xml version="1.0" encoding="UTF-8"?>
<svg width="27px" height="30px" viewBox="0 0 27 30" version="1.1" xmlns="http://www.w3.org/2000/svg" xmlns:xlink="http://www.w3.org/1999/xlink">
    <!-- Generator: Sketch 49.1 (51147) - http://www.bohemiancoding.com/sketch -->
    <title>download</title>
    <desc>Created with Sketch.</desc>
    <defs></defs>
    <g id="Page-1" stroke="none" stroke-width="1" fill="none" fill-rule="evenodd">
        <g id="1-1-1-Сryptoguys-Landing-pre-ico" transform="translate(-601.000000, -13700.000000)" fill="#FFFFFF" fill-rule="nonzero">
            <g id="Documents" transform="translate(160.000000, 13415.000000)">
                <g id="hover" transform="translate(275.000000, 254.000000)">
                    <g id="download" transform="translate(166.000000, 31.000000)">
                        <path d="M8.2336174,12.8274443 C7.92212753,13.1728988 7.92212753,13.7269297 8.2336174,14.0723842 L12.4416691,18.7392796 C12.5944755,18.9087479 12.8001763,19 13,19 C13.1998237,19 13.4055245,18.9152659 13.5583309,18.7392796 L17.7663826,14.0723842 C18.0778725,13.7269297 18.0778725,13.1728988 17.7663826,12.8274443 C17.4548927,12.4819897 16.9553335,12.4819897 16.6438437,12.8274443 L13.7934176,15.9886792 L13.7934176,0.879931389 C13.7934176,0.391080617 13.4407875,0 13,0 C12.5592125,0 12.2065824,0.391080617 12.2065824,0.879931389 L12.2065824,15.9886792 L9.35615633,12.8274443 C9.04466647,12.4819897 8.53923009,12.4819897 8.2336174,12.8274443 Z" id="Shape"></path>
                        <path d="M26.9694846,19.2871737 L24.1010398,8.67423383 C24.033906,8.4307605 23.869123,8.23723042 23.6494123,8.13110102 L23.5700723,8.09364359 C23.460217,8.04370034 23.3442586,8.01872872 23.2283002,8.01872872 L18.0589964,8.01872872 C17.6012658,8.01872872 17.2350814,8.39330306 17.2350814,8.861521 C17.2350814,9.32973893 17.6012658,9.70431328 18.0589964,9.70431328 L22.6729204,9.70431328 L25.0958409,18.6816118 L18.687613,18.6816118 C18.2298825,18.6816118 17.863698,19.0561862 17.863698,19.5244041 L17.863698,20.2860386 C17.863698,21.4035187 16.9787523,22.3087401 15.886302,22.3087401 L10.8573689,22.3087401 C9.76491863,22.3087401 8.87997288,21.4035187 8.87997288,20.2860386 L8.87997288,19.5244041 C8.87997288,19.0561862 8.51378843,18.6816118 8.05605787,18.6816118 L1.89805606,18.6816118 L4.33318264,9.68558456 L8.94710669,9.68558456 C9.40483725,9.68558456 9.7710217,9.31101022 9.7710217,8.84279228 C9.7710217,8.37457435 9.40483725,8 8.94710669,8 L3.77169982,8 C3.65574141,8 3.539783,8.02497162 3.42992767,8.07491487 L3.3505877,8.1123723 C3.13087703,8.2185017 2.95999096,8.41203178 2.89896022,8.65550511 L0.0305153707,19.2684449 C0.0122061483,19.3433598 0,19.4182747 0,19.4931896 L0,23.9194098 C0,27.2718502 2.6670434,30 5.94439421,30 L21.0556058,30 C24.3329566,30 27,27.2718502 27,23.9194098 L27,19.5119183 C27,19.4307605 26.9938969,19.3558456 26.9694846,19.2871737 Z M25.35217,23.9194098 C25.35217,26.3416572 23.4235986,28.3144154 21.0556058,28.3144154 L5.94439421,28.3144154 C3.57640145,28.3144154 1.64783002,26.3416572 1.64783002,23.9194098 L1.64783002,20.3671964 L7.24434901,20.3671964 C7.28707052,22.3711691 8.8982821,23.9880817 10.869575,23.9880817 L15.8985081,23.9880817 C17.8698011,23.9880817 19.4810127,22.3711691 19.5237342,20.3671964 L25.3643761,20.3671964 L25.3643761,23.9194098 L25.35217,23.9194098 Z" id="Shape"></path>
                    </g>
                </g>
            </g>
        </g>
    </g>
</svg>