<?xml version="1.0" encoding="UTF-8"?>
<svg width="56px" height="56px" viewBox="0 0 56 56" version="1.1" xmlns="http://www.w3.org/2000/svg" xmlns:xlink="http://www.w3.org/1999/xlink">
    <!-- Generator: Sketch 48.2 (47327) - http://www.bohemiancoding.com/sketch -->
    <title>engineer</title>
    <desc>Created with Sketch.</desc>
    <defs></defs>
    <g id="1-1-1-Сryptoguys-Landing" stroke="none" stroke-width="1" fill="none" fill-rule="evenodd" transform="translate(-827.000000, -2898.000000)">
        <g id="Services" transform="translate(160.000000, 2600.000000)" fill="#25CBD3">
            <g transform="translate(0.000000, 253.000000)" id="2">
                <g transform="translate(427.000000, 0.000000)">
                    <g id="engineer" transform="translate(240.000000, 45.000000)">
                        <g>
                            <path d="M35.2258065,46.9677419 C36.7197419,46.9677419 37.9354839,45.752 37.9354839,44.2580645 C37.9354839,42.764129 36.7197419,41.5483871 35.2258065,41.5483871 C34.0498065,41.5483871 33.0562581,42.3061935 32.6823226,43.3548387 L28.9032258,43.3548387 L28.9032258,37.9354839 L32.6823226,37.9354839 C33.0562581,38.984129 34.0498065,39.7419355 35.2258065,39.7419355 C36.7197419,39.7419355 37.9354839,38.5261935 37.9354839,37.0322581 C37.9354839,35.5383226 36.7197419,34.3225806 35.2258065,34.3225806 C34.0498065,34.3225806 33.0562581,35.0803871 32.6823226,36.1290323 L28.9032258,36.1290323 L28.9032258,30.7096774 L32.6823226,30.7096774 C33.0562581,31.7583226 34.0498065,32.516129 35.2258065,32.516129 C36.7197419,32.516129 37.9354839,31.3003871 37.9354839,29.8064516 C37.9354839,28.3125161 36.7197419,27.0967742 35.2258065,27.0967742 C34.0498065,27.0967742 33.0562581,27.8545806 32.6823226,28.9032258 L28.9032258,28.9032258 L28.9032258,27.0967742 L27.0967742,27.0967742 L27.0967742,23.3176774 C28.1454194,22.9437419 28.9032258,21.9501935 28.9032258,20.7741935 C28.9032258,19.2802581 27.6874839,18.0645161 26.1935484,18.0645161 C24.6996129,18.0645161 23.483871,19.2802581 23.483871,20.7741935 C23.483871,21.9501935 24.2416774,22.9437419 25.2903226,23.3176774 L25.2903226,27.0967742 L19.8709677,27.0967742 L19.8709677,23.3176774 C20.9196129,22.9437419 21.6774194,21.9501935 21.6774194,20.7741935 C21.6774194,19.2802581 20.4616774,18.0645161 18.9677419,18.0645161 C17.4738065,18.0645161 16.2580645,19.2802581 16.2580645,20.7741935 C16.2580645,21.9501935 17.015871,22.9437419 18.0645161,23.3176774 L18.0645161,27.0967742 L12.6451613,27.0967742 L12.6451613,23.3176774 C13.6938065,22.9437419 14.4516129,21.9501935 14.4516129,20.7741935 C14.4516129,19.2802581 13.235871,18.0645161 11.7419355,18.0645161 C10.248,18.0645161 9.03225806,19.2802581 9.03225806,20.7741935 C9.03225806,21.9501935 9.79006452,22.9437419 10.8387097,23.3176774 L10.8387097,27.0967742 L9.03225806,27.0967742 L9.03225806,28.9032258 L5.25316129,28.9032258 C4.87922581,27.8545806 3.88567742,27.0967742 2.70967742,27.0967742 C1.21574194,27.0967742 0,28.3125161 0,29.8064516 C0,31.3003871 1.21574194,32.516129 2.70967742,32.516129 C3.88567742,32.516129 4.87922581,31.7583226 5.25316129,30.7096774 L9.03225806,30.7096774 L9.03225806,36.1290323 L5.25316129,36.1290323 C4.87922581,35.0803871 3.88567742,34.3225806 2.70967742,34.3225806 C1.21574194,34.3225806 0,35.5383226 0,37.0322581 C0,38.5261935 1.21574194,39.7419355 2.70967742,39.7419355 C3.88567742,39.7419355 4.87922581,38.984129 5.25316129,37.9354839 L9.03225806,37.9354839 L9.03225806,43.3548387 L5.25316129,43.3548387 C4.87922581,42.3061935 3.88567742,41.5483871 2.70967742,41.5483871 C1.21574194,41.5483871 0,42.764129 0,44.2580645 C0,45.752 1.21574194,46.9677419 2.70967742,46.9677419 C3.88567742,46.9677419 4.87922581,46.2099355 5.25316129,45.1612903 L9.03225806,45.1612903 L9.03225806,46.9677419 L10.8387097,46.9677419 L10.8387097,50.7468387 C9.79006452,51.1207742 9.03225806,52.1143226 9.03225806,53.2903226 C9.03225806,54.7842581 10.248,56 11.7419355,56 C13.235871,56 14.4516129,54.7842581 14.4516129,53.2903226 C14.4516129,52.1143226 13.6938065,51.1207742 12.6451613,50.7468387 L12.6451613,46.9677419 L18.0645161,46.9677419 L18.0645161,50.7468387 C17.015871,51.1207742 16.2580645,52.1143226 16.2580645,53.2903226 C16.2580645,54.7842581 17.4738065,56 18.9677419,56 C20.4616774,56 21.6774194,54.7842581 21.6774194,53.2903226 C21.6774194,52.1143226 20.9196129,51.1207742 19.8709677,50.7468387 L19.8709677,46.9677419 L25.2903226,46.9677419 L25.2903226,50.7468387 C24.2416774,51.1207742 23.483871,52.1143226 23.483871,53.2903226 C23.483871,54.7842581 24.6996129,56 26.1935484,56 C27.6874839,56 28.9032258,54.7842581 28.9032258,53.2903226 C28.9032258,52.1143226 28.1454194,51.1207742 27.0967742,50.7468387 L27.0967742,46.9677419 L28.9032258,46.9677419 L28.9032258,45.1612903 L32.6823226,45.1612903 C33.0562581,46.2099355 34.0498065,46.9677419 35.2258065,46.9677419 Z M35.2258065,43.3548387 C35.7243871,43.3548387 36.1290323,43.7594839 36.1290323,44.2580645 C36.1290323,44.7566452 35.7243871,45.1612903 35.2258065,45.1612903 C34.7272258,45.1612903 34.3225806,44.7566452 34.3225806,44.2580645 C34.3225806,43.7594839 34.7272258,43.3548387 35.2258065,43.3548387 Z M35.2258065,36.1290323 C35.7243871,36.1290323 36.1290323,36.5336774 36.1290323,37.0322581 C36.1290323,37.5308387 35.7243871,37.9354839 35.2258065,37.9354839 C34.7272258,37.9354839 34.3225806,37.5308387 34.3225806,37.0322581 C34.3225806,36.5336774 34.7272258,36.1290323 35.2258065,36.1290323 Z M35.2258065,28.9032258 C35.7243871,28.9032258 36.1290323,29.307871 36.1290323,29.8064516 C36.1290323,30.3050323 35.7243871,30.7096774 35.2258065,30.7096774 C34.7272258,30.7096774 34.3225806,30.3050323 34.3225806,29.8064516 C34.3225806,29.307871 34.7272258,28.9032258 35.2258065,28.9032258 Z M2.70967742,30.7096774 C2.21109677,30.7096774 1.80645161,30.3050323 1.80645161,29.8064516 C1.80645161,29.307871 2.21109677,28.9032258 2.70967742,28.9032258 C3.20825806,28.9032258 3.61290323,29.307871 3.61290323,29.8064516 C3.61290323,30.3050323 3.20825806,30.7096774 2.70967742,30.7096774 Z M2.70967742,37.9354839 C2.21109677,37.9354839 1.80645161,37.5308387 1.80645161,37.0322581 C1.80645161,36.5336774 2.21109677,36.1290323 2.70967742,36.1290323 C3.20825806,36.1290323 3.61290323,36.5336774 3.61290323,37.0322581 C3.61290323,37.5308387 3.20825806,37.9354839 2.70967742,37.9354839 Z M2.70967742,45.1612903 C2.21109677,45.1612903 1.80645161,44.7566452 1.80645161,44.2580645 C1.80645161,43.7594839 2.21109677,43.3548387 2.70967742,43.3548387 C3.20825806,43.3548387 3.61290323,43.7594839 3.61290323,44.2580645 C3.61290323,44.7566452 3.20825806,45.1612903 2.70967742,45.1612903 Z M26.1935484,19.8709677 C26.692129,19.8709677 27.0967742,20.2765161 27.0967742,20.7741935 C27.0967742,21.271871 26.692129,21.6774194 26.1935484,21.6774194 C25.6949677,21.6774194 25.2903226,21.271871 25.2903226,20.7741935 C25.2903226,20.2765161 25.6949677,19.8709677 26.1935484,19.8709677 Z M18.9677419,19.8709677 C19.4663226,19.8709677 19.8709677,20.2765161 19.8709677,20.7741935 C19.8709677,21.271871 19.4663226,21.6774194 18.9677419,21.6774194 C18.4691613,21.6774194 18.0645161,21.271871 18.0645161,20.7741935 C18.0645161,20.2765161 18.4691613,19.8709677 18.9677419,19.8709677 Z M11.7419355,19.8709677 C12.2405161,19.8709677 12.6451613,20.2765161 12.6451613,20.7741935 C12.6451613,21.271871 12.2405161,21.6774194 11.7419355,21.6774194 C11.2433548,21.6774194 10.8387097,21.271871 10.8387097,20.7741935 C10.8387097,20.2765161 11.2433548,19.8709677 11.7419355,19.8709677 Z M11.7419355,54.1935484 C11.2433548,54.1935484 10.8387097,53.7889032 10.8387097,53.2903226 C10.8387097,52.7917419 11.2433548,52.3870968 11.7419355,52.3870968 C12.2405161,52.3870968 12.6451613,52.7917419 12.6451613,53.2903226 C12.6451613,53.7889032 12.2405161,54.1935484 11.7419355,54.1935484 Z M18.9677419,54.1935484 C18.4691613,54.1935484 18.0645161,53.7889032 18.0645161,53.2903226 C18.0645161,52.7917419 18.4691613,52.3870968 18.9677419,52.3870968 C19.4663226,52.3870968 19.8709677,52.7917419 19.8709677,53.2903226 C19.8709677,53.7889032 19.4663226,54.1935484 18.9677419,54.1935484 Z M26.1935484,54.1935484 C25.6949677,54.1935484 25.2903226,53.7889032 25.2903226,53.2903226 C25.2903226,52.7917419 25.6949677,52.3870968 26.1935484,52.3870968 C26.692129,52.3870968 27.0967742,52.7917419 27.0967742,53.2903226 C27.0967742,53.7889032 26.692129,54.1935484 26.1935484,54.1935484 Z M27.0967742,45.1612903 L10.8387097,45.1612903 L10.8387097,28.9032258 L27.0967742,28.9032258 L27.0967742,45.1612903 Z" id="Shape" fill-rule="nonzero"></path>
                            <path d="M51.9309677,14.4507097 L51.9309677,14.4516129 C51.5940645,13.1455484 51.0756129,11.8972903 50.3828387,10.7267097 L53.2632258,7.84541935 L48.1536774,2.73677419 L45.2723871,5.61806452 C44.1018065,4.9243871 42.8544516,4.40593548 41.5483871,4.06903226 L41.5483871,0 L34.3225806,0 L34.3225806,4.06903226 C33.0165161,4.40593548 31.7691613,4.9243871 30.5985806,5.61716129 L27.7172903,2.73587097 L22.6077419,7.84451613 L25.488129,10.7258065 C24.7953548,11.8963871 24.2769032,13.1446452 23.94,14.4507097 L20.7741935,14.4507097 L20.7741935,16.2571613 L25.3969032,16.2571613 L25.544129,15.5336774 C25.8647742,13.952129 26.4852903,12.4590968 27.3885161,11.0943226 L27.795871,10.4792258 L25.1611613,7.84451613 L27.7163871,5.29019355 L30.3510968,7.92490323 L30.9661935,7.51754839 C32.3300645,6.61432258 33.8230968,5.99380645 35.4055484,5.67316129 L36.1290323,5.52683871 L36.1290323,1.80645161 L39.7419355,1.80645161 L39.7419355,5.52683871 L40.4654194,5.67406452 C42.047871,5.99470968 43.5409032,6.61522581 44.9047742,7.51845161 L45.519871,7.92580645 L48.1545806,5.29109677 L50.7098065,7.84541935 L48.0750968,10.480129 L48.4824516,11.0952258 C49.3856774,12.46 50.0061935,13.9530323 50.3268387,15.5345806 L50.4740645,16.2580645 L54.1935484,16.2580645 L54.1935484,19.8709677 L50.4740645,19.8709677 L50.3268387,20.5944516 C50.0061935,22.176 49.3856774,23.6690323 48.4824516,25.0329032 L48.0750968,25.6489032 L50.7098065,28.2836129 L48.1545806,30.8388387 L45.519871,28.204129 L44.9047742,28.6114839 C43.54,29.5147097 42.0469677,30.136129 40.4654194,30.455871 L39.7419355,30.6030968 L39.7419355,35.2258065 L41.5483871,35.2258065 L41.5483871,32.06 C42.8535484,31.724 44.1018065,31.2055484 45.2723871,30.511871 L48.1536774,33.3922581 L53.2632258,28.2827097 L50.3828387,25.4014194 C51.0756129,24.2308387 51.5940645,22.9825806 51.9309677,21.6765161 L56,21.6765161 L56,14.4507097 L51.9309677,14.4507097 Z" id="Shape" fill-rule="nonzero"></path>
                            <path d="M37.9354839,25.2903226 L37.9354839,27.0967742 C42.915871,27.0967742 46.9677419,23.0449032 46.9677419,18.0645161 C46.9677419,13.084129 42.915871,9.03225806 37.9354839,9.03225806 C32.9550968,9.03225806 28.9032258,13.084129 28.9032258,18.0645161 L30.7096774,18.0645161 C30.7096774,14.0803871 33.9513548,10.8387097 37.9354839,10.8387097 C41.9196129,10.8387097 45.1612903,14.0803871 45.1612903,18.0645161 C45.1612903,22.0486452 41.9196129,25.2903226 37.9354839,25.2903226 Z" id="Shape" fill-rule="nonzero"></path>
                            <rect id="Rectangle-path" fill-rule="nonzero" x="12.6451613" y="30.7096774" width="12.6451613" height="1.80645161"></rect>
                            <rect id="Rectangle-path" fill-rule="nonzero" x="23.483871" y="41.5483871" width="1.80645161" height="1.80645161"></rect>
                            <rect id="Rectangle-path" fill-rule="nonzero" x="12.6451613" y="41.5483871" width="9.03225806" height="1.80645161"></rect>
                            <path d="M33.2396129,53.667871 L33.5990968,55.4390968 C44.6274839,53.2 53.2,44.6274839 55.4390968,33.5990968 L53.667871,33.2396129 C51.5750968,43.5562581 43.5562581,51.5750968 33.2396129,53.667871 Z" id="Shape" fill-rule="nonzero"></path>
                            <path d="M22.7603871,2.33122581 L22.4009032,0.560903226 C11.3725161,2.8 2.8,11.3725161 0.560903226,22.4009032 L2.33212903,22.7594839 C4.42490323,12.4446452 12.4437419,4.42490323 22.7603871,2.33122581 Z" id="Shape" fill-rule="nonzero"></path>
                        </g>
                    </g>
                </g>
            </g>
        </g>
    </g>
</svg>