<?xml version="1.0" encoding="UTF-8"?>
<svg width="56px" height="47px" viewBox="0 0 56 47" version="1.1" xmlns="http://www.w3.org/2000/svg" xmlns:xlink="http://www.w3.org/1999/xlink">
    <!-- Generator: Sketch 48.2 (47327) - http://www.bohemiancoding.com/sketch -->
    <title>bars</title>
    <desc>Created with Sketch.</desc>
    <defs></defs>
    <g id="1-1-1-Сryptoguys-Landing" stroke="none" stroke-width="1" fill="none" fill-rule="evenodd" transform="translate(-827.000000, -3130.000000)">
        <g id="Services" transform="translate(160.000000, 2600.000000)">
            <g transform="translate(0.000000, 253.000000)" id="6">
                <g transform="translate(427.000000, 227.000000)">
                    <g id="bars" transform="translate(240.000000, 45.000000)">
                        <rect id="Rectangle" x="0" y="0" width="56" height="56"></rect>
                        <g stroke-width="1" fill-rule="evenodd" transform="translate(0.000000, 5.000000)" fill="#25CBD3" id="Shape">
                            <path d="M46.4338824,0.00250140056 C42.1647059,0.00250140056 38.7915294,3.42547059 38.7915294,7.69101681 C38.7915294,11.956563 42.2174118,15.3268711 46.4338824,15.3268711 C50.6503529,15.3268711 54.1289412,11.903902 54.1289412,7.63835574 C54.1289412,3.37280952 50.7030588,0.00250140056 46.4338824,0.00250140056 Z M46.4338824,13.6417171 C43.1134118,13.6417171 40.4254118,10.9560028 40.4254118,7.63835574 C40.4254118,4.32070868 43.1661176,1.68765546 46.4338824,1.68765546 C49.7543529,1.68765546 52.4423529,4.37336975 52.4423529,7.69101681 C52.4423529,11.0086639 49.7543529,13.6417171 46.4338824,13.6417171 Z" fill-rule="nonzero"></path>
                            <path d="M48.8583529,8.84956022 C48.8056471,8.69157703 48.8056471,8.5862549 48.7002353,8.42827171 C48.6475294,8.32294958 48.5948235,8.16496639 48.4894118,8.05964426 C48.384,7.95432213 48.3312941,7.849 48.2258824,7.74367787 C48.1204706,7.63835574 48.0150588,7.53303361 47.8569412,7.48037255 C47.7515294,7.37505042 47.5934118,7.32238936 47.488,7.26972829 C47.3298824,7.21706723 47.2244706,7.1117451 47.0663529,7.05908403 C46.9082353,7.00642297 46.7501176,6.9537619 46.6447059,6.90110084 C46.592,6.90110084 46.4865882,6.84843978 46.4338824,6.79577871 C46.3811765,6.74311765 46.2757647,6.74311765 46.2230588,6.69045658 C46.1703529,6.63779552 46.0649412,6.63779552 46.0122353,6.58513445 C45.9595294,6.53247339 45.9068235,6.47981232 45.8541176,6.42715126 C45.8014118,6.3744902 45.7487059,6.32182913 45.7487059,6.216507 C45.696,6.16384594 45.696,6.05852381 45.696,6.00586275 C45.696,5.90054062 45.696,5.84787955 45.696,5.74255742 C45.696,5.68989636 45.7487059,5.58457423 45.7487059,5.53191317 C45.8014118,5.4792521 45.8014118,5.37392997 45.8541176,5.32126891 C45.9068235,5.26860784 45.9595294,5.21594678 46.0122353,5.16328571 C46.0649412,5.11062465 46.1703529,5.05796359 46.2757647,5.05796359 C46.3811765,5.00530252 46.4338824,5.00530252 46.5392941,5.00530252 C46.592,5.00530252 46.6447059,5.00530252 46.6974118,5.00530252 C46.7501176,5.00530252 46.8028235,5.00530252 46.8555294,5.00530252 C46.9609412,5.00530252 47.0136471,5.00530252 47.1190588,5.05796359 C47.2244706,5.05796359 47.3298824,5.11062465 47.3825882,5.11062465 C47.4352941,5.11062465 47.5407059,5.16328571 47.5934118,5.16328571 C47.6988235,5.16328571 47.7515294,5.21594678 47.8042353,5.21594678 L48.0677647,5.32126891 L48.1204706,5.00530252 L48.2258824,4.16272549 L48.2258824,3.95208123 L48.0150588,3.89942017 C47.9623529,3.89942017 47.8569412,3.8467591 47.8042353,3.8467591 C47.7515294,3.8467591 47.6988235,3.79409804 47.5934118,3.79409804 C47.5407059,3.79409804 47.4352941,3.74143697 47.3298824,3.74143697 C47.2244706,3.74143697 47.1717647,3.68877591 47.0663529,3.68877591 L47.0136471,3.68877591 L47.0136471,2.95152101 L47.0136471,2.68821569 L46.7501176,2.68821569 L46.0122353,2.68821569 L45.7487059,2.68821569 L45.7487059,2.95152101 L45.7487059,3.74143697 L45.696,3.74143697 C45.5378824,3.79409804 45.3797647,3.8467591 45.2216471,3.95208123 C45.0635294,4.0047423 44.9581176,4.11006443 44.8527059,4.21538655 C44.7472941,4.32070868 44.6418824,4.42603081 44.5364706,4.58401401 C44.4310588,4.68933613 44.3783529,4.84731933 44.3256471,5.00530252 C44.2729412,5.16328571 44.2202353,5.32126891 44.1675294,5.4792521 C44.1148235,5.63723529 44.1148235,5.84787955 44.1148235,6.00586275 C44.1148235,6.16384594 44.1148235,6.26916807 44.1675294,6.42715126 C44.2202353,6.58513445 44.2202353,6.69045658 44.3256471,6.84843978 C44.3783529,6.9537619 44.4837647,7.1117451 44.5364706,7.21706723 C44.6418824,7.32238936 44.6945882,7.42771148 44.8,7.53303361 C44.9054118,7.63835574 45.0108235,7.74367787 45.1689412,7.79633894 C45.2743529,7.90166106 45.4324706,7.95432213 45.5378824,8.00698319 C45.696,8.05964426 45.8541176,8.16496639 45.9595294,8.21762745 C46.1176471,8.27028852 46.2757647,8.32294958 46.3811765,8.37561064 C46.4338824,8.37561064 46.5392941,8.42827171 46.592,8.48093277 C46.6447059,8.53359384 46.7501176,8.53359384 46.8028235,8.5862549 C46.8555294,8.63891597 46.9082353,8.69157703 46.9609412,8.69157703 C47.0136471,8.7442381 47.0663529,8.79689916 47.1190588,8.84956022 C47.1717647,8.90222129 47.1717647,8.95488235 47.2244706,9.06020448 C47.2244706,9.11286555 47.2771765,9.21818768 47.2771765,9.3235098 C47.2771765,9.42883193 47.2771765,9.481493 47.2771765,9.58681513 C47.2771765,9.63947619 47.2244706,9.74479832 47.1717647,9.79745938 C47.1190588,9.85012045 47.0663529,9.90278151 47.0136471,9.95544258 C46.9609412,10.0081036 46.9082353,10.0607647 46.8028235,10.1134258 C46.7501176,10.1660868 46.6447059,10.1660868 46.592,10.2187479 C46.5392941,10.2187479 46.4338824,10.271409 46.3284706,10.271409 C46.2757647,10.271409 46.2230588,10.271409 46.1176471,10.271409 C46.0649412,10.271409 45.9595294,10.271409 45.9068235,10.271409 C45.8014118,10.271409 45.696,10.271409 45.6432941,10.271409 C45.5378824,10.271409 45.4324706,10.2187479 45.3797647,10.2187479 C45.2743529,10.2187479 45.1689412,10.1660868 45.0635294,10.1134258 C44.9581176,10.0607647 44.8527059,10.0607647 44.7472941,10.0081036 C44.6945882,10.0081036 44.6418824,9.95544258 44.5891765,9.95544258 C44.5364706,9.95544258 44.4837647,9.90278151 44.4310588,9.90278151 L44.1148235,9.74479832 L44.0621176,10.1134258 L43.9567059,11.0613249 L43.9567059,11.2193081 L44.1148235,11.2719692 C44.3256471,11.2193081 44.4310588,11.2719692 44.5891765,11.3246303 C44.6945882,11.3772913 44.8527059,11.4299524 44.9581176,11.4299524 C45.0635294,11.4826134 45.2216471,11.4826134 45.3797647,11.5352745 C45.5378824,11.5879356 45.6432941,11.5879356 45.8014118,11.5879356 L45.9068235,11.5879356 L45.9068235,12.3778515 L45.9068235,12.6411569 L46.1703529,12.6411569 L46.9082353,12.6411569 L47.1717647,12.6411569 L47.1717647,12.3778515 L47.1717647,11.5352745 L47.2244706,11.5352745 C47.3825882,11.4826134 47.5407059,11.4299524 47.6988235,11.3246303 C47.8569412,11.2719692 47.9623529,11.1666471 48.1204706,11.0613249 C48.2258824,10.9560028 48.3312941,10.8506807 48.4367059,10.6926975 C48.5421176,10.5873754 48.5948235,10.4293922 48.7002353,10.271409 C48.7529412,10.1134258 48.8056471,9.95544258 48.8583529,9.79745938 C48.9110588,9.63947619 48.9110588,9.481493 48.9110588,9.27084874 C48.9110588,9.11286555 48.9110588,9.00754342 48.8583529,8.84956022 Z" fill-rule="nonzero"></path>
                            <path d="M42.7444706,16.3274314 C42.4809412,15.9588039 41.9011765,15.9061429 41.5322353,16.1694482 L32.9938824,22.9627255 L21.9783529,18.3812129 C21.7148235,18.2758908 21.3985882,18.3285518 21.1877647,18.486535 L9.38164706,26.9123053 C9.01270588,27.1756106 8.90729412,27.7022213 9.17082353,28.0708487 C9.32894118,28.3341541 9.59247059,28.4394762 9.856,28.4394762 C10.0141176,28.4394762 10.1722353,28.3868151 10.3303529,28.281493 L21.7675294,20.119028 L32.8357647,24.7005406 C33.0992941,24.8058627 33.4682353,24.7532017 33.6790588,24.5952185 L42.5863529,17.5386359 C42.9552941,17.2753305 43.008,16.6960588 42.7444706,16.3274314 Z" fill-rule="nonzero"></path>
                            <path d="M55.0776471,45.1856947 L51.1774118,45.1856947 L51.1774118,20.8036218 C51.1774118,20.3296723 50.8084706,19.9610448 50.3341176,19.9610448 L42.5863529,19.9610448 C42.112,19.9610448 41.7430588,20.3296723 41.7430588,20.8036218 L41.7430588,45.1856947 L38.8969412,45.1856947 L38.8969412,29.2293922 C38.8969412,28.7554426 38.528,28.3868151 38.0536471,28.3868151 L30.2531765,28.3868151 C29.7788235,28.3868151 29.4098824,28.7554426 29.4098824,29.2293922 L29.4098824,45.1856947 L26.5637647,45.1856947 L26.5637647,27.9655266 C26.5637647,27.491577 26.1948235,27.1229496 25.7204706,27.1229496 L17.9727059,27.1229496 C17.4983529,27.1229496 17.1294118,27.491577 17.1294118,27.9655266 L17.1294118,45.1856947 L14.2832941,45.1856947 L14.2832941,32.9156667 C14.2832941,32.4417171 13.9143529,32.0730896 13.44,32.0730896 L5.63952941,32.0730896 C5.16517647,32.0730896 4.79623529,32.4417171 4.79623529,32.9156667 L4.79623529,45.1856947 L0.843294118,45.1856947 C0.368941176,45.1856947 0,45.5543221 0,46.0282717 C0,46.5022213 0.368941176,46.8708487 0.843294118,46.8708487 L5.58682353,46.8708487 L13.3345882,46.8708487 L17.9727059,46.8708487 L25.7204706,46.8708487 L30.2531765,46.8708487 L38.0009412,46.8708487 L42.5336471,46.8708487 L50.2814118,46.8708487 L55.0249412,46.8708487 C55.4992941,46.8708487 55.8682353,46.5022213 55.8682353,46.0282717 C55.9209412,45.5543221 55.552,45.1856947 55.0776471,45.1856947 Z M12.544,45.1856947 L6.48282353,45.1856947 L6.48282353,33.7582437 L12.544,33.7582437 L12.544,45.1856947 Z M24.8771765,45.1856947 L18.816,45.1856947 L18.816,28.8081036 L24.8771765,28.8081036 L24.8771765,45.1856947 Z M37.1576471,45.1856947 L31.0964706,45.1856947 L31.0964706,30.0719692 L37.1576471,30.0719692 L37.1576471,45.1856947 Z M49.4908235,45.1856947 L43.4296471,45.1856947 L43.4296471,21.6461989 L49.4908235,21.6461989 L49.4908235,45.1856947 Z" fill-rule="nonzero"></path>
                        </g>
                    </g>
                </g>
            </g>
        </g>
    </g>
</svg>