<?xml version="1.0" encoding="UTF-8"?>
<svg width="56px" height="56px" viewBox="0 0 56 56" version="1.1" xmlns="http://www.w3.org/2000/svg" xmlns:xlink="http://www.w3.org/1999/xlink">
    <!-- Generator: Sketch 48.2 (47327) - http://www.bohemiancoding.com/sketch -->
    <title>line-graph</title>
    <desc>Created with Sketch.</desc>
    <defs></defs>
    <g id="1-1-1-Сryptoguys-Landing" stroke="none" stroke-width="1" fill="none" fill-rule="evenodd" transform="translate(-827.000000, -3353.000000)">
        <g id="Services" transform="translate(160.000000, 2600.000000)" fill="#25CBD3">
            <g transform="translate(0.000000, 253.000000)" id="10">
                <g transform="translate(427.000000, 454.000000)">
                    <g id="line-graph" transform="translate(240.000000, 46.000000)">
                        <g id="Shape">
                            <path d="M54.8844844,51.0756235 L6.687625,51.0756235 L12.76975,44.2817255 C13.3038281,44.5660078 13.9122813,44.727749 14.5578125,44.727749 C16.0437813,44.727749 17.3339688,43.8733647 17.969,42.6288471 L24.1834687,44.2042039 C24.3478594,46.1738667 25.99625,47.7264941 28.0001094,47.7264941 C30.1125781,47.7264941 31.8311875,46.0011451 31.8311875,43.8803922 C31.8311875,42.7108706 31.3079375,41.6622431 30.4847813,40.9563137 L35.5526719,28.7965176 L39.1617187,38.035749 C38.2990781,38.7416784 37.7468438,39.816 37.7468438,41.0176941 C37.7468438,43.1384471 39.4655625,44.8637961 41.5780313,44.8637961 C43.6905,44.8637961 45.4091094,43.1384471 45.4091094,41.0176941 C45.4091094,40.5844078 45.3362656,40.1680314 45.2040312,39.7791059 L49.630875,35.3346824 C50.0665156,34.8973333 50.0665156,34.1882196 49.630875,33.7507608 C49.1952344,33.3135216 48.4888906,33.3135216 48.05325,33.7507608 L43.8770938,37.9432941 C43.2362656,37.458949 42.4397969,37.1714824 41.5777031,37.1714824 C41.4593594,37.1714824 41.3424375,37.1776314 41.2267187,37.1882824 L36.7892656,25.828298 L41.2470625,15.1324078 C41.3561094,15.141851 41.4661406,15.1476706 41.5775937,15.1476706 C43.3515469,15.1476706 44.8471406,13.9309333 45.2811406,12.2850824 L52.3041094,12.2850824 C52.9202187,12.2850824 53.419625,11.7836078 53.419625,11.1651922 C53.419625,10.5467765 52.9202187,10.045302 52.3041094,10.045302 L45.1979062,10.045302 C44.6780469,8.53967059 43.252125,7.45524706 41.5777031,7.45524706 C39.4652344,7.45524706 37.7465156,9.18059608 37.7465156,11.3014588 C37.7465156,12.5105098 38.3056406,13.5903216 39.17725,14.2960314 L35.6192812,22.8328471 L30.4217812,9.52713725 C31.2027187,8.82252549 31.6950156,7.80134902 31.6950156,6.66663529 C31.6950156,4.54577255 29.9762969,2.82042353 27.8638281,2.82042353 C25.7513594,2.82042353 24.0329688,4.54577255 24.0329688,6.66663529 C24.0329688,7.58415686 24.3551875,8.42745098 24.8912344,9.08923922 L15.6949844,23.0776 C15.2964219,22.9361725 14.868,22.8584314 14.4218594,22.8584314 C13.964125,22.8584314 13.5250938,22.9396863 13.1178906,23.0881412 L5.21817188,12.6529255 L5.21817188,1.21465098 C5.21817188,0.596235294 4.71876563,0.0947607843 4.10265625,0.0947607843 C3.48654688,0.0947607843 2.98703125,0.596235294 2.98703125,1.21465098 L2.98703125,12.2265569 L1.11551563,12.2265569 C0.49940625,12.2264471 0,12.7280314 0,13.3464471 C0,13.9648627 0.49940625,14.4663373 1.11551563,14.4663373 L2.98714062,14.4663373 L2.98714062,25.7214588 L1.11551563,25.7214588 C0.49940625,25.7214588 0,26.2229333 0,26.841349 C0,27.4597647 0.49940625,27.9612392 1.11551563,27.9612392 L2.98714062,27.9612392 L2.98714062,39.4891137 L1.11551563,39.4891137 C0.49940625,39.4891137 0,39.9905882 0,40.6090039 C0,41.2274196 0.49940625,41.7288941 1.11551563,41.7288941 L2.98714062,41.7288941 L2.98714062,52.1955137 C2.98714062,52.8139294 3.48654687,53.3154039 4.10265625,53.3154039 L13.7137656,53.3154039 L13.7137656,54.785349 C13.7137656,55.4037647 14.2131719,55.9052392 14.8292813,55.9052392 C15.4453906,55.9052392 15.9447969,55.4037647 15.9447969,54.785349 L15.9447969,53.3154039 L27.1559531,53.3154039 L27.1559531,54.785349 C27.1559531,55.4037647 27.6553594,55.9052392 28.2714688,55.9052392 C28.8875781,55.9052392 29.3869844,55.4037647 29.3869844,54.785349 L29.3869844,53.3154039 L40.8696094,53.3154039 L40.8696094,54.785349 C40.8696094,55.4037647 41.3690156,55.9052392 41.985125,55.9052392 C42.6012344,55.9052392 43.1006406,55.4037647 43.1006406,54.785349 L43.1006406,53.3154039 L54.8841563,53.3154039 C55.5002656,53.3154039 55.9996719,52.8139294 55.9996719,52.1955137 C55.9996719,51.577098 55.5005938,51.0756235 54.8844844,51.0756235 Z M41.5781406,39.4114824 C42.46025,39.4114824 43.1781875,40.1321255 43.1781875,41.0179137 C43.1781875,41.9034824 42.4603594,42.6242353 41.5781406,42.6242353 C40.6958125,42.6242353 39.9779844,41.9035922 39.9779844,41.0179137 C39.9779844,40.1321255 40.6958125,39.4114824 41.5781406,39.4114824 Z M41.5780312,9.69535686 C42.4603594,9.69535686 43.1780781,10.416 43.1780781,11.3017882 C43.1780781,12.1875765 42.46025,12.9082196 41.5780312,12.9082196 C40.6957031,12.9082196 39.977875,12.1875765 39.977875,11.3017882 C39.977875,10.416 40.6957031,9.69535686 41.5780312,9.69535686 Z M14.5578125,42.4878588 C13.6754844,42.4878588 12.9577656,41.7672157 12.9577656,40.8814275 C12.9577656,39.995749 13.6755938,39.2751059 14.5578125,39.2751059 C15.4400313,39.2751059 16.1578594,39.995749 16.1578594,40.8814275 C16.15775,41.7673255 15.4400313,42.4878588 14.5578125,42.4878588 Z M28,45.4867137 C27.1176719,45.4867137 26.3999531,44.7660706 26.3999531,43.8803922 C26.3999531,42.9946039 27.1177813,42.2739608 28,42.2739608 C28.8822188,42.2739608 29.6000469,42.9946039 29.6000469,43.8803922 C29.6000469,44.7660706 28.8823281,45.4867137 28,45.4867137 Z M27.8642656,5.06075294 C28.7465937,5.06075294 29.4644219,5.78139608 29.4644219,6.66718431 C29.4644219,7.55297255 28.7465938,8.27361569 27.8642656,8.27361569 C26.9819375,8.27361569 26.2642188,7.55297255 26.2642188,6.66718431 C26.2642188,5.78139608 26.9819375,5.06075294 27.8642656,5.06075294 Z M14.4218594,25.0987608 C15.3042969,25.0987608 16.0220156,25.8192941 16.0220156,26.7050824 C16.0220156,27.5908706 15.3041875,28.3115137 14.4218594,28.3115137 C13.5395312,28.3115137 12.8218125,27.5908706 12.8218125,26.7050824 C12.8219219,25.8194039 13.53975,25.0987608 14.4218594,25.0987608 Z M5.21828125,16.3550745 L11.3334375,24.4329098 C10.8671719,25.0699922 10.5908906,25.8556392 10.5908906,26.7049725 C10.5908906,28.8258353 12.3095,30.5511843 14.4219688,30.5511843 C16.5344375,30.5511843 18.2531562,28.8258353 18.2531562,26.7049725 C18.2531562,25.8449882 17.9705313,25.0501176 17.4935469,24.4088627 L26.74,10.3440784 C27.0956875,10.4538824 27.4731406,10.5132863 27.8641563,10.5132863 C28.044625,10.5132863 28.2220313,10.4997804 28.3959375,10.4754039 L34.3825781,25.8011765 L28.4395781,40.0603137 C28.2952031,40.0437333 28.1486406,40.0341804 27.9998906,40.0341804 C26.5621562,40.0341804 25.3074062,40.8337725 24.65225,42.0129569 L18.3599063,40.4177255 C18.1309844,38.5150431 16.5136562,37.0352157 14.5575937,37.0352157 C12.445125,37.0352157 10.7265156,38.7605647 10.7265156,40.8813176 C10.7265156,41.5395922 10.8923281,42.1596549 11.1839219,42.7019765 L5.21828125,49.3659765 L5.21828125,16.3550745 Z" fill-rule="nonzero"></path>
                            <path d="M53.4328594,29.7980392 C52.9972188,29.3606902 52.290875,29.3606902 51.8552344,29.7980392 L50.9725781,30.6841569 C50.5369375,31.1216157 50.5369375,31.8306196 50.9725781,32.2680784 C51.1904531,32.486698 51.4759219,32.5960627 51.7613906,32.5960627 C52.0468594,32.5960627 52.3324375,32.486698 52.5502031,32.2680784 L53.4328594,31.3819608 C53.8683906,30.944502 53.8683906,30.235498 53.4328594,29.7980392 Z" fill-rule="nonzero"></path>
                        </g>
                    </g>
                </g>
            </g>
        </g>
    </g>
</svg>