<?xml version="1.0" encoding="UTF-8"?>
<svg width="56px" height="49px" viewBox="0 0 56 49" version="1.1" xmlns="http://www.w3.org/2000/svg" xmlns:xlink="http://www.w3.org/1999/xlink">
    <!-- Generator: Sketch 48.2 (47327) - http://www.bohemiancoding.com/sketch -->
    <title>bar-chart</title>
    <desc>Created with Sketch.</desc>
    <defs></defs>
    <g id="1-1-1-Сryptoguys-Landing" stroke="none" stroke-width="1" fill="none" fill-rule="evenodd" transform="translate(-1254.000000, -3356.000000)">
        <g id="Services" transform="translate(160.000000, 2600.000000)">
            <g transform="translate(0.000000, 253.000000)" id="11">
                <g transform="translate(854.000000, 454.000000)">
                    <g id="bar-chart" transform="translate(240.000000, 45.000000)">
                        <rect id="Rectangle" x="0" y="0" width="56" height="56"></rect>
                        <g stroke-width="1" fill-rule="evenodd" transform="translate(0.000000, 4.000000)" fill="#25CBD3" id="Shape">
                            <path d="M54.677,46.3438733 L1.323,46.3438733 C0.592265625,46.3438733 0,46.9335067 0,47.6609933 C0,48.3882622 0.592265625,48.9781133 1.323,48.9781133 L54.677,48.9781133 C55.4075156,48.9781133 56,48.3882622 56,47.6609933 C56,46.9336156 55.4077344,46.3438733 54.677,46.3438733 Z" fill-rule="nonzero"></path>
                            <path d="M51.2279688,6.23987778 L41.9367813,6.23987778 C41.2062656,6.23987778 40.6137813,6.82972889 40.6137813,7.55699778 L40.6137813,16.51202 L33.9684844,16.51202 L33.9684844,1.33900667 C33.9684844,0.611737778 33.376,0.0218866667 32.6454844,0.0218866667 L23.3540781,0.0218866667 C22.6235625,0.0218866667 22.0310781,0.611737778 22.0310781,1.33900667 L22.0310781,26.2617133 L15.3857813,26.2617133 L15.3857813,15.0658667 C15.3857813,14.33838 14.7932969,13.7487467 14.0627813,13.7487467 L4.77159375,13.7487467 C4.04085938,13.7487467 3.44859375,14.33838 3.44859375,15.0658667 L3.44859375,40.2805044 C3.44859375,41.0079911 4.04107813,41.5976244 4.77159375,41.5976244 L14.0627812,41.5976244 L23.3539687,41.5976244 L32.645375,41.5976244 L41.9366719,41.5976244 L51.2278594,41.5976244 C51.9585937,41.5976244 52.5508594,41.0077733 52.5508594,40.2805044 L52.5508594,7.55699778 C52.5509688,6.82972889 51.9587031,6.23987778 51.2279688,6.23987778 Z M12.7398906,38.9633844 L6.09459375,38.9633844 L6.09459375,16.3829867 L12.7398906,16.3829867 L12.7398906,38.9633844 Z M22.0312969,38.9633844 L15.386,38.9633844 L15.386,28.8959533 L22.0312969,28.8959533 L22.0312969,38.9633844 Z M31.3225938,17.82914 L31.3225938,38.9633844 L24.6771875,38.9633844 L24.6771875,2.65612667 L31.3225938,2.65612667 L31.3225938,17.82914 Z M40.614,38.9633844 L33.9687031,38.9633844 L33.9687031,19.14626 L40.614,19.14626 L40.614,38.9633844 Z M49.9051875,38.9633844 L43.26,38.9633844 L43.26,17.82914 L43.26,8.87411778 L49.9052969,8.87411778 L49.9052969,38.9633844 L49.9051875,38.9633844 Z" fill-rule="nonzero"></path>
                        </g>
                    </g>
                </g>
            </g>
        </g>
    </g>
</svg>