<?xml version="1.0" encoding="UTF-8"?>
<svg width="56px" height="54px" viewBox="0 0 56 54" version="1.1" xmlns="http://www.w3.org/2000/svg" xmlns:xlink="http://www.w3.org/1999/xlink">
    <!-- Generator: Sketch 48.2 (47327) - http://www.bohemiancoding.com/sketch -->
    <title>analysis</title>
    <desc>Created with Sketch.</desc>
    <defs></defs>
    <g id="1-1-1-Сryptoguys-Landing" stroke="none" stroke-width="1" fill="none" fill-rule="evenodd" transform="translate(-1680.000000, -3580.000000)">
        <g id="Services" transform="translate(160.000000, 2600.000000)">
            <g transform="translate(0.000000, 253.000000)" id="16">
                <g transform="translate(1280.000000, 681.000000)">
                    <g id="analysis" transform="translate(240.000000, 45.000000)">
                        <rect id="Rectangle" x="0" y="0" width="56" height="56"></rect>
                        <g stroke-width="1" fill-rule="evenodd" transform="translate(0.000000, 1.000000)" fill="#25CBD3">
                            <path d="M31.6670156,9.55821774 C28.9876563,6.89131452 25.4255313,5.42242742 21.6363438,5.42242742 C17.8472656,5.42242742 14.2849219,6.89120565 11.6055625,9.55821774 C6.07479688,15.0636048 6.07479688,24.0216169 11.6055625,29.5271129 C14.2849219,32.1940161 17.8471563,33.6629032 21.6363438,33.6629032 C25.4254219,33.6629032 28.9876563,32.194125 31.6670156,29.5271129 C34.3462656,26.8602097 35.8218438,23.3142823 35.8218438,19.5426653 C35.8218438,15.7710484 34.3462656,12.2252298 31.6670156,9.55821774 Z M12.7479844,10.695375 C15.1220781,8.33222177 18.27875,7.03066935 21.6362344,7.03066935 C24.9937188,7.03066935 28.1502813,8.33222177 30.524375,10.695375 C32.3981875,12.5604435 33.6068906,14.9109677 34.0333438,17.4618145 L29.6300156,21.7479556 C29.2129688,21.5136653 28.7321563,21.3794274 28.2201719,21.3794274 C27.2234375,21.3794274 26.343625,21.8864395 25.8268281,22.6547419 L19.3547813,20.6333347 C19.3551094,20.6147177 19.3562031,20.5961008 19.3562031,20.577375 C19.3562031,18.9973306 18.0648125,17.7117823 16.4773438,17.7117823 C14.8899844,17.7117823 13.5984844,18.9973306 13.5984844,20.577375 C13.5984844,21.0938589 13.7371719,21.5785524 13.9784531,21.9975968 L10.5826875,25.5013911 C8.00603125,20.7590806 8.72714063,14.6976895 12.7479844,10.695375 Z M29.4835625,24.2449113 C29.4835625,24.9382016 28.9167813,25.502371 28.2202813,25.502371 C27.5237813,25.502371 26.957,24.9382016 26.957,24.2449113 C26.957,23.551621 27.5237813,22.9874516 28.2202813,22.9874516 C28.9167813,22.9874516 29.4835625,23.5515121 29.4835625,24.2449113 Z M17.7407344,20.5771573 C17.7407344,21.2704476 17.1739531,21.8346169 16.4774531,21.8346169 C15.7808438,21.8346169 15.2140625,21.2704476 15.2140625,20.5771573 C15.2140625,19.8838669 15.7808438,19.3196976 16.4774531,19.3196976 C17.1739531,19.3198065 17.7407344,19.8838669 17.7407344,20.5771573 Z M30.5244844,28.3900645 C28.1503906,30.7532177 24.9938281,32.0547702 21.6363438,32.0547702 C18.2788594,32.0547702 15.1221875,30.7533266 12.7480938,28.3900645 C12.2765781,27.9207218 11.8507813,27.422746 11.4699375,26.902125 L15.1411094,23.1141774 C15.5407656,23.3236452 15.9953281,23.44275 16.4774531,23.44275 C17.4741875,23.44275 18.354,22.9357379 18.8707969,22.1674355 L25.3428438,24.1888427 C25.3425156,24.2074597 25.3414219,24.2260766 25.3414219,24.2448024 C25.3414219,25.8248468 26.6328125,27.1103952 28.2202813,27.1103952 C29.8076406,27.1103952 31.0991406,25.8248468 31.0991406,24.2448024 C31.0991406,23.7579315 30.9760938,23.2992581 30.7600781,22.8973065 L34.2062656,19.5428831 C34.2061563,22.8848952 32.8985781,26.0269113 30.5244844,28.3900645 Z" id="Shape" fill-rule="nonzero"></path>
                            <path d="M14.4827813,11.3398911 L15.542625,12.5535847 C18.04775,10.3861815 21.56,9.71793145 24.7093438,10.8097984 L25.2407969,9.29115726 C21.5463281,8.01018145 17.4240938,8.79525 14.4827813,11.3398911 Z" id="Shape" fill-rule="nonzero"></path>
                            <path d="M27.3142187,10.2656613 L26.4737812,11.6390685 C26.9013281,11.8982903 27.3117031,12.1955081 27.6934219,12.5223387 L28.7470312,11.3030927 C28.2988125,10.9194315 27.8166875,10.5703911 27.3142187,10.2656613 Z" id="Shape" fill-rule="nonzero"></path>
                            <path d="M23.5688906,28.5913669 C21.7511875,28.9727419 19.8831719,28.8122661 18.1662031,28.1275766 L17.5654062,29.6203065 C18.8672969,30.1395121 20.2426875,30.4018911 21.62825,30.4018911 C22.3867656,30.4018911 23.1482344,30.3231774 23.9021563,30.1649879 L23.5688906,28.5913669 Z" id="Shape" fill-rule="nonzero"></path>
                            <path d="M41.8724688,32.4615121 L40.6995313,33.6290444 L37.7895,30.5328629 C41.2337188,25.5214234 42.0628906,19.2519798 40.2761406,13.6347823 L42.5849375,11.3873589 C42.9910469,11.605754 43.4554531,11.7298669 43.948625,11.7298669 C45.5359844,11.7298669 46.8274844,10.4443185 46.8274844,8.86427419 C46.8274844,8.39634677 46.7135156,7.95465726 46.5128125,7.56402823 L51.46925,2.73962903 L51.46925,5.23320968 L53.0848281,5.23320968 L53.0848281,0.0247137097 L47.8523281,0.0247137097 L47.8523281,1.63284677 L50.2955469,1.63284677 L45.4045156,6.39355645 C44.9770781,6.14304435 44.4796406,5.99857258 43.9487344,5.99857258 C42.361375,5.99857258 41.069875,7.28412097 41.069875,8.86416532 C41.069875,9.3697621 41.2026563,9.844875 41.4345313,10.2577137 L39.6650625,11.9800524 C38.7125156,9.72206855 37.3154688,7.60735887 35.4711875,5.77157661 C27.8425,-1.82184677 15.4301875,-1.82162903 7.80160938,5.77157661 C1.00603125,12.5358387 0.264140625,23.0785766 5.57528125,30.6679718 L4.21509375,32.0714274 C3.8154375,31.8619597 3.360875,31.7428548 2.87875,31.7428548 C1.29139063,31.742746 0,33.0282944 0,34.6083387 C0,36.1883831 1.29139063,37.4739315 2.87885938,37.4739315 C4.46632813,37.4739315 5.75771875,36.1883831 5.75771875,34.6083387 C5.75771875,34.091746 5.61903125,33.6071613 5.37764063,33.1881169 L6.566,31.9619032 C6.9531875,32.4267823 7.36421875,32.8782702 7.8015,33.3136452 C11.6158438,37.1103024 16.6260938,39.0085766 21.6363438,39.0085766 C25.4824063,39.0085766 29.3280313,37.8885121 32.633125,35.6512137 L35.5500469,38.7547984 L34.3370781,39.9621774 L48.4643906,53.9752863 L56,46.474621 L41.8724688,32.4615121 Z M43.9487344,7.60681452 C44.6452344,7.60681452 45.2120156,8.17098387 45.2120156,8.86427419 C45.2120156,9.55756452 44.6452344,10.1217339 43.9487344,10.1217339 C43.252125,10.1217339 42.6854531,9.55756452 42.6854531,8.86427419 C42.6854531,8.17098387 43.252125,7.60681452 43.9487344,7.60681452 Z M2.87885938,35.8656895 C2.18235938,35.8656895 1.61557813,35.3015202 1.61557813,34.6082298 C1.61557813,33.9149395 2.18235938,33.3507702 2.87885938,33.3507702 C3.57546875,33.3507702 4.14214063,33.9149395 4.14214063,34.6082298 C4.14203125,35.301629 3.57535938,35.8656895 2.87885938,35.8656895 Z M8.94392188,32.1765968 C1.94534375,25.2102702 1.94534375,13.8752782 8.94392188,6.90873387 C12.4431563,3.42551613 17.0396406,1.684125 21.6362344,1.684125 C26.2328281,1.684125 30.8294219,3.42573387 34.3286563,6.90873387 C41.3272344,13.8750605 41.3272344,25.2101613 34.3286563,32.1765968 C27.3302969,39.1428145 15.9422813,39.1428145 8.94392188,32.1765968 Z M33.9388438,34.6865081 C34.4676719,34.2602782 34.9794375,33.8030202 35.4711875,33.3136452 C35.9463125,32.8407097 36.3916875,32.3492661 36.8075313,31.8418185 L39.5566719,34.7666371 L36.693125,37.6169879 L33.9388438,34.6865081 Z M48.4625313,51.7030403 L36.624,39.9601089 L41.8746563,34.7336492 L53.7131875,46.4764718 L48.4625313,51.7030403 Z" id="Shape" fill-rule="nonzero"></path>
                            <polygon id="Shape" fill-rule="nonzero" points="41.8736719 37.0681694 39.5619219 39.3691573 40.7044531 40.5063145 41.8736719 39.342375 46.3324531 43.7806089 47.4747656 42.6435605"></polygon>
                            <rect id="Rectangle-path" fill-rule="nonzero" transform="translate(48.887332, 45.183819) rotate(-45.000000) translate(-48.887332, -45.183819) " x="48.0795507" y="44.3411109" width="1.61556263" height="1.68541529"></rect>
                            <rect id="Rectangle-path" fill-rule="nonzero" x="8.7530625" y="39.8324032" width="1.61557813" height="1.75206048"></rect>
                            <rect id="Rectangle-path" fill-rule="nonzero" x="8.7530625" y="49.6525645" width="1.61557813" height="1.75206048"></rect>
                            <rect id="Rectangle-path" fill-rule="nonzero" x="22.05875" y="43.2115403" width="1.61557813" height="1.75195161"></rect>
                            <rect id="Rectangle-path" fill-rule="nonzero" x="45.2119063" y="28.74825" width="1.61557812" height="1.75206048"></rect>
                            <rect id="Rectangle-path" fill-rule="nonzero" x="47.0449219" y="14.7941492" width="1.61557813" height="1.75206048"></rect>
                            <rect id="Rectangle-path" fill-rule="nonzero" x="52.3989375" y="22.1828952" width="1.61557813" height="1.75206048"></rect>
                        </g>
                    </g>
                </g>
            </g>
        </g>
    </g>
</svg>