<?xml version="1.0" encoding="UTF-8"?>
<svg width="56px" height="56px" viewBox="0 0 56 56" version="1.1" xmlns="http://www.w3.org/2000/svg" xmlns:xlink="http://www.w3.org/1999/xlink">
    <!-- Generator: Sketch 48.2 (47327) - http://www.bohemiancoding.com/sketch -->
    <title>network</title>
    <desc>Created with Sketch.</desc>
    <defs></defs>
    <g id="1-1-1-Сryptoguys-Landing" stroke="none" stroke-width="1" fill="none" fill-rule="evenodd" transform="translate(-1254.000000, -2898.000000)">
        <g id="Services" transform="translate(160.000000, 2600.000000)" fill="#25CBD3">
            <g transform="translate(0.000000, 253.000000)" id="3">
                <g transform="translate(854.000000, 0.000000)">
                    <g id="network" transform="translate(240.000000, 45.000000)">
                        <g transform="translate(-0.000000, 0.000000)" id="Shape">
                            <path d="M49.8909091,0 C46.5217455,0 43.7818182,2.73992727 43.7818182,6.10909091 C43.7818182,7.16290909 44.0496,8.15461818 44.5210182,9.02109091 L34.5133091,19.0288 C33.1336727,17.9546182 31.4068364,17.3090909 29.5272727,17.3090909 C27.6477091,17.3090909 25.9208727,17.9546182 24.5402182,19.0277818 L16.7317818,11.2193455 C17.0901818,10.6135273 17.3090909,9.91709091 17.3090909,9.16363636 C17.3090909,6.91752727 15.4824727,5.09090909 13.2363636,5.09090909 C10.9902545,5.09090909 9.16363636,6.91752727 9.16363636,9.16363636 C9.16363636,11.4097455 10.9902545,13.2363636 13.2363636,13.2363636 C13.9898182,13.2363636 14.6862545,13.0174545 15.2920727,12.6590545 L23.1005091,20.4674909 C22.0273455,21.8481455 21.3818182,23.5749818 21.3818182,25.4545455 C21.3818182,27.3341091 22.0273455,29.0609455 23.1005091,30.4405818 L10.2062545,43.3358545 C9.12087273,42.3512727 7.68625455,41.7454545 6.10909091,41.7454545 C2.73992727,41.7454545 0,44.4853818 0,47.8545455 C0,51.2237091 2.73992727,53.9636364 6.10909091,53.9636364 C9.47825455,53.9636364 12.2181818,51.2237091 12.2181818,47.8545455 C12.2181818,46.8007273 11.9504,45.8090182 11.4789818,44.9425455 L24.5412364,31.8802909 C25.6673455,32.7559273 27.0256,33.3424 28.5101091,33.5287273 L28.5101091,43.8734545 C25.6256,44.3601455 23.4192,46.8689455 23.4192,49.8909091 C23.4192,53.2600727 26.1591273,56 29.5282909,56 C32.8974545,56 35.6373818,53.2600727 35.6373818,49.8909091 C35.6373818,46.8699636 33.4309818,44.3611636 30.5464727,43.8734545 L30.5464727,33.5287273 C32.0309818,33.3424 33.3892364,32.7559273 34.5153455,31.8802909 L42.3237818,39.6887273 C41.9643636,40.2955636 41.7454545,40.992 41.7454545,41.7454545 C41.7454545,43.9915636 43.5720727,45.8181818 45.8181818,45.8181818 C48.0642909,45.8181818 49.8909091,43.9915636 49.8909091,41.7454545 C49.8909091,39.4993455 48.0642909,37.6727273 45.8181818,37.6727273 C45.0647273,37.6727273 44.3682909,37.8916364 43.7624727,38.2500364 L35.9540364,30.4416 C37.0272,29.0609455 37.6727273,27.3341091 37.6727273,25.4545455 C37.6727273,23.5749818 37.0272,21.8481455 35.9540364,20.4685091 L45.7947636,10.6277818 C46.8791273,11.6123636 48.3137455,12.2181818 49.8909091,12.2181818 C53.2600727,12.2181818 56,9.47825455 56,6.10909091 C56,2.73992727 53.2600727,0 49.8909091,0 Z M11.2,9.16363636 C11.2,8.04058182 12.1133091,7.12727273 13.2363636,7.12727273 C14.3594182,7.12727273 15.2727273,8.04058182 15.2727273,9.16363636 C15.2727273,10.2866909 14.3594182,11.2 13.2363636,11.2 C12.1133091,11.2 11.2,10.2866909 11.2,9.16363636 Z M6.10909091,51.9272727 C3.86298182,51.9272727 2.03636364,50.1006545 2.03636364,47.8545455 C2.03636364,45.6084364 3.86298182,43.7818182 6.10909091,43.7818182 C8.3552,43.7818182 10.1818182,45.6084364 10.1818182,47.8545455 C10.1818182,50.1006545 8.3552,51.9272727 6.10909091,51.9272727 Z M33.6,49.8909091 C33.6,52.1370182 31.7733818,53.9636364 29.5272727,53.9636364 C27.2811636,53.9636364 25.4545455,52.1370182 25.4545455,49.8909091 C25.4545455,47.6448 27.2811636,45.8181818 29.5272727,45.8181818 C31.7733818,45.8181818 33.6,47.6448 33.6,49.8909091 Z M29.5272727,31.5636364 C26.1581091,31.5636364 23.4181818,28.8237091 23.4181818,25.4545455 C23.4181818,22.0853818 26.1581091,19.3454545 29.5272727,19.3454545 C32.8964364,19.3454545 35.6363636,22.0853818 35.6363636,25.4545455 C35.6363636,28.8237091 32.8964364,31.5636364 29.5272727,31.5636364 Z M47.8545455,41.7454545 C47.8545455,42.8685091 46.9412364,43.7818182 45.8181818,43.7818182 C44.6951273,43.7818182 43.7818182,42.8685091 43.7818182,41.7454545 C43.7818182,40.6224 44.6951273,39.7090909 45.8181818,39.7090909 C46.9412364,39.7090909 47.8545455,40.6224 47.8545455,41.7454545 Z M49.8909091,10.1818182 C47.6448,10.1818182 45.8181818,8.3552 45.8181818,6.10909091 C45.8181818,3.86298182 47.6448,2.03636364 49.8909091,2.03636364 C52.1370182,2.03636364 53.9636364,3.86298182 53.9636364,6.10909091 C53.9636364,8.3552 52.1370182,10.1818182 49.8909091,10.1818182 Z" fill-rule="nonzero"></path>
                        </g>
                    </g>
                </g>
            </g>
        </g>
    </g>
</svg>